<svg width="41" height="41" viewBox="0 0 41 41" fill="none" xmlns="http://www.w3.org/2000/svg">
<path d="M20.3343 0C9.16269 0 0.0722656 9.00299 0.0722656 20.0715C0.0722656 31.1399 9.16269 40.1429 20.3343 40.1429C31.5059 40.1429 40.5963 31.1399 40.5963 20.0715C40.5963 9.00299 31.5059 0 20.3343 0ZM20.3343 38.806C9.90696 38.806 1.42433 30.4014 1.42433 20.0715C1.42433 9.74155 9.90696 1.33693 20.3343 1.33693C30.7616 1.33693 39.2443 9.74155 39.2443 20.0715C39.2443 30.4014 30.7616 38.806 20.3343 38.806Z" fill="white"/>
<path d="M24.7574 8.80523H21.3861C17.0923 8.76267 16.5439 11.3952 16.5439 14.2443V16.3161H14.6485C14.5628 16.3047 14.4757 16.3131 14.3938 16.3406C14.3119 16.368 14.2375 16.4138 14.1764 16.4743C14.1153 16.5349 14.0691 16.6086 14.0414 16.6897C14.0137 16.7708 14.0052 16.8571 14.0167 16.942V20.6974C14.0052 20.7823 14.0137 20.8686 14.0414 20.9497C14.0691 21.0308 14.1153 21.1045 14.1764 21.165C14.2375 21.2256 14.3119 21.2714 14.3938 21.2988C14.4757 21.3262 14.5628 21.3346 14.6485 21.3233H16.5439V30.7118C16.5334 30.7969 16.5426 30.8831 16.5709 30.9641C16.5991 31.045 16.6457 31.1185 16.7071 31.1789C16.7684 31.2393 16.8428 31.285 16.9247 31.3125C17.0066 31.3401 17.0937 31.3487 17.1795 31.3377H21.0398C21.4126 31.3803 21.7146 31.0811 21.5958 30.7118L21.5983 21.3233H24.7574C24.843 21.3346 24.9302 21.3262 25.0121 21.2988C25.0939 21.2714 25.1683 21.2256 25.2294 21.165C25.2906 21.1045 25.3368 21.0308 25.3645 20.9497C25.3922 20.8686 25.4006 20.7823 25.3892 20.6974V16.942C25.4006 16.8571 25.3922 16.7708 25.3645 16.6897C25.3368 16.6086 25.2906 16.5349 25.2294 16.4743C25.1683 16.4138 25.0939 16.368 25.0121 16.3406C24.9302 16.3131 24.843 16.3047 24.7574 16.3161H21.5946L21.5983 14.4384C21.7209 13.6385 21.7209 13.7686 22.4702 13.8125H24.7308C24.9065 13.7737 25.0935 13.7949 25.2249 13.6685C25.3563 13.5421 25.4321 13.3693 25.3879 13.1866V9.43114C25.3996 9.34634 25.3913 9.26001 25.3638 9.17889C25.3362 9.09778 25.2902 9.02406 25.2291 8.96348C25.1681 8.9029 25.0938 8.8571 25.0119 8.82965C24.9301 8.8022 24.843 8.79385 24.7574 8.80523ZM24.0813 12.4905L22.4968 12.4305C20.5344 12.4305 20.3701 13.4857 20.3701 14.566L20.3651 16.9395C20.3649 17.0274 20.3822 17.1144 20.4161 17.1957C20.4499 17.2769 20.4996 17.3507 20.5622 17.413C20.6249 17.4752 20.6994 17.5245 20.7813 17.5582C20.8633 17.5919 20.9511 17.6092 21.0398 17.6092H24.1256V20.0277H21.0424C20.8633 20.0277 20.6915 20.0981 20.5648 20.2234C20.438 20.3487 20.3667 20.5187 20.3663 20.6961L20.3651 30.0859H17.8075V20.6974C17.8075 20.3281 17.5535 20.0289 17.1795 20.0289H15.2803V17.6104H17.1795C17.2682 17.6106 17.356 17.5934 17.4379 17.5599C17.5199 17.5264 17.5944 17.4772 17.6571 17.4152C17.7835 17.2887 17.8062 17.1185 17.8062 16.9407V14.2431C17.8062 11.4365 18.3787 10.0996 21.3848 10.0996H24.0801V12.4905H24.0813Z" fill="white"/>
</svg>
