<svg width="41" height="41" viewBox="0 0 41 41" fill="none" xmlns="http://www.w3.org/2000/svg">
<path d="M20.3343 0C9.16269 0 0.0722656 9.00299 0.0722656 20.0715C0.0722656 31.1399 9.16269 40.1429 20.3343 40.1429C31.5059 40.1429 40.5963 31.1399 40.5963 20.0715C40.5963 9.00299 31.5059 0 20.3343 0ZM20.3343 38.806C9.90696 38.806 1.42433 30.4014 1.42433 20.0715C1.42433 9.74155 9.90696 1.33693 20.3343 1.33693C30.7616 1.33693 39.2442 9.74155 39.2442 20.0715C39.2442 30.4014 30.7616 38.806 20.3343 38.806Z" fill="white"/>
<path d="M20.3725 14.978C19.3167 14.978 18.2847 15.2882 17.4068 15.8692C16.529 16.4503 15.8448 17.2762 15.4407 18.2425C15.0367 19.2088 14.931 20.2721 15.137 21.2979C15.3429 22.3238 15.8513 23.266 16.5979 24.0056C17.3444 24.7452 18.2956 25.2488 19.3311 25.4529C20.3666 25.6569 21.4399 25.5522 22.4153 25.1519C23.3907 24.7517 24.2244 24.0739 24.811 23.2042C25.3976 22.3346 25.7106 21.3122 25.7106 20.2663C25.709 18.8642 25.1461 17.52 24.1454 16.5286C23.1446 15.5373 21.7878 14.9796 20.3725 14.978V14.978ZM20.3725 24.175C19.5922 24.175 18.8293 23.9457 18.1805 23.5162C17.5316 23.0867 17.0259 22.4763 16.7273 21.762C16.4287 21.0478 16.3505 20.2619 16.5028 19.5037C16.655 18.7455 17.0308 18.049 17.5826 17.5024C18.1344 16.9557 18.8374 16.5835 19.6028 16.4327C20.3681 16.2818 21.1615 16.3592 21.8824 16.6551C22.6034 16.9509 23.2196 17.4519 23.6531 18.0947C24.0867 18.7375 24.3181 19.4932 24.3181 20.2663C24.3169 21.3025 23.9008 22.296 23.1611 23.0288C22.4214 23.7616 21.4186 24.1738 20.3725 24.175V24.175ZM25.4785 9H15.2665C13.6051 9.00189 12.0123 9.65654 10.8375 10.8203C9.66273 11.9842 9.0019 13.5621 9 15.2079V25.3246C9.0019 26.9704 9.66273 28.5484 10.8375 29.7122C12.0123 30.876 13.6051 31.5306 15.2665 31.5325H25.4785C27.1399 31.5306 28.7327 30.876 29.9075 29.7122C31.0823 28.5484 31.7431 26.9704 31.745 25.3246V15.2079C31.7431 13.5621 31.0823 11.9842 29.9075 10.8203C28.7327 9.65654 27.1399 9.00189 25.4785 9ZM30.3525 25.3246C30.351 26.6047 29.8371 27.832 28.9233 28.7372C28.0096 29.6424 26.7707 30.1515 25.4785 30.153H15.2665C13.9743 30.1515 12.7354 29.6424 11.8217 28.7372C10.908 27.832 10.394 26.6047 10.3926 25.3246V15.2079C10.394 13.9278 10.908 12.7005 11.8217 11.7953C12.7354 10.8901 13.9743 10.381 15.2665 10.3795H25.4785C26.7707 10.381 28.0096 10.8901 28.9233 11.7953C29.8371 12.7005 30.351 13.9278 30.3525 15.2079V25.3246ZM27.5674 14.2882C27.5674 14.5156 27.4993 14.7379 27.3718 14.9269C27.2443 15.116 27.063 15.2633 26.851 15.3503C26.6389 15.4374 26.4056 15.4601 26.1805 15.4158C25.9554 15.3714 25.7486 15.2619 25.5863 15.1011C25.424 14.9404 25.3135 14.7355 25.2687 14.5125C25.224 14.2895 25.2469 14.0584 25.3348 13.8483C25.4226 13.6382 25.5713 13.4587 25.7622 13.3324C25.953 13.206 26.1774 13.1386 26.4069 13.1386C26.7146 13.139 27.0095 13.2602 27.2271 13.4757C27.4446 13.6913 27.567 13.9835 27.5674 14.2882V14.2882Z" fill="white"/>
</svg>
