<svg width="42" height="41" viewBox="0 0 42 41" fill="none" xmlns="http://www.w3.org/2000/svg">
<path d="M25.5412 15.0044C24.6844 15.0044 24.0501 15.2185 23.5535 15.4888C23.4739 15.2084 23.2123 15.0031 22.904 15.0645H19.1334C18.7606 15.0031 18.4586 15.3023 18.5736 15.6904V29.4602C18.4586 29.8108 18.7606 30.1112 19.1334 30.0862H22.904C23.2768 30.1112 23.5788 29.8108 23.5788 29.4415L23.5775 21.1195C23.5762 21.1157 23.5623 20.7176 23.8163 20.4435C24.0198 20.2257 24.3698 20.1143 24.8538 20.1143C25.6599 20.1143 26.0188 20.441 26.1528 21.172V29.4415C26.0201 29.8108 26.3221 30.1112 26.6948 30.0862H30.6689C31.0417 30.1112 31.3437 29.8108 31.2097 29.4415V20.8941C31.3424 16.5479 28.2175 15.0044 25.5412 15.0044ZM29.9929 28.8343H27.3696V21.172C27.3696 19.6937 26.4055 18.7773 24.855 18.7773C23.9781 18.7773 23.2957 19.0327 22.8257 19.5359C22.1724 20.2369 22.2229 21.1257 22.3632 21.3235V28.8343H19.8082V16.3413H22.2292V16.7619C22.2282 16.8872 22.263 17.0103 22.3294 17.1169C22.3958 17.2235 22.4913 17.3094 22.6048 17.3647C22.7183 17.42 22.8452 17.4425 22.971 17.4295C23.0968 17.4166 23.2164 17.3687 23.3159 17.2914L23.4928 17.1562C24.0046 16.7569 24.5341 16.3426 25.5424 16.3426C26.5862 16.3426 29.9941 16.6718 29.9941 20.8954V28.8343H29.9929Z" fill="white"/>
<path d="M14.7792 8.7627C13.3614 8.7627 12.209 9.90434 12.209 11.3089C12.209 12.7134 13.3614 13.855 14.7792 13.855C16.1969 13.855 17.3494 12.7134 17.3494 11.3089C17.3494 9.90434 16.1969 8.7627 14.7792 8.7627ZM14.7792 12.5181C14.1069 12.5181 13.5585 11.9748 13.5585 11.3089C13.5585 10.6429 14.1069 10.0996 14.7792 10.0996C15.4514 10.0996 15.9998 10.6429 15.9998 11.3089C15.9998 11.9748 15.4514 12.5181 14.7792 12.5181Z" fill="white"/>
<path d="M16.5852 15.0029H12.8347C12.462 15.0029 12.16 15.3021 12.2535 15.6902V29.46C12.16 29.8105 12.462 30.111 12.8347 30.0859H16.5852C16.9579 30.111 17.2599 29.8105 17.2599 29.4413V15.6714C17.2599 15.4941 17.1888 15.3241 17.0623 15.1987C16.9357 15.0734 16.7641 15.0029 16.5852 15.0029ZM16.0443 28.8341H13.5095V16.3411H16.0443V28.8341Z" fill="white"/>
<path d="M21.0987 0C9.92579 0 0.837891 9.00299 0.837891 20.0715C0.837891 31.1399 9.92579 40.1429 21.0987 40.1429C32.2715 40.1429 41.3594 31.1399 41.3594 20.0715C41.3594 9.00299 32.2715 0 21.0987 0ZM21.0987 38.806C10.6713 38.806 2.18743 30.4014 2.18743 20.0715C2.18743 9.74155 10.6713 1.33693 21.0987 1.33693C31.526 1.33693 40.0099 9.74155 40.0099 20.0715C40.0099 30.4014 31.526 38.806 21.0987 38.806Z" fill="white"/>
</svg>
