<svg width="100" height="128" viewBox="0 0 100 128" fill="none" xmlns="http://www.w3.org/2000/svg">
<g clip-path="url(#clip0)">
<path d="M37.1672 128C64.2173 128 71.814 112.224 71.814 101.062C71.814 88.1476 62.0163 81.2789 50.4437 73.659L29.4285 58.9916C22.4707 54.5198 19.1338 51.6579 19.1338 48.0089C19.1338 44.6462 21.1928 43.6803 24.3521 43.6803C32.5879 43.6803 50.4437 54.0548 66.5957 78.739H67.5541L67.6961 46.3991C73.3404 47.5081 78.7007 47.9732 86.0845 47.9732V41.1403H67.5896C59.8509 33.3415 51.6152 22.7882 51.6152 15.9553C51.6152 12.1274 53.4966 8.76467 58.2535 8.76467C66.4892 8.76467 79.1267 20.8921 85.3035 35.3807L86.262 35.5595L100.035 12.9145C94.0007 5.43767 84.6645 0 71.8495 0C67.2701 0 37.2027 5.43767 38.9421 36.0246L39.1196 38.7434C38.0902 38.6719 37.0962 38.5646 36.0667 38.5646C16.9329 38.5646 3.65637 49.0822 3.65637 65.0375C3.65637 75.5551 9.79766 83.2107 21.6897 90.5444L40.8236 102.994C53.4966 111.115 56.656 114.012 56.656 117.661C56.656 121.167 54.3131 122.598 51.4377 122.598C39.2616 122.598 14.4125 105.856 0.993965 80.4919H0L3.30138 124.959C15.158 123.063 21.8317 128 37.1672 128Z" fill="white"/>
</g>
<defs>
<clipPath id="clip0">
<rect width="100" height="128" fill="white"/>
</clipPath>
</defs>
</svg>
