<svg width="168" height="35" viewBox="0 0 168 35" fill="none" xmlns="http://www.w3.org/2000/svg">
<g clip-path="url(#clip0)">
<path d="M33.4044 15.1116L40.6134 26.0296V26.2286H34.3405V26.0296L36.9949 25.1766L31.4345 16.9881L30.0933 18.2534V25.1055L32.8456 26.0296V26.2286H24.7285V26.0296L27.4807 25.1055V1.97595L24.3652 1.87644V1.6632L29.8977 0.27002H30.0933V17.4715L35.0949 12.5954C36.939 10.8894 36.939 9.59577 34.0191 8.57221V8.34476H40.32V8.54378L33.4044 15.1116Z" fill="#141414"/>
<path d="M41.3535 18.0402C41.3535 10.2925 46.6205 8.00366 48.1294 8.00366C51.9574 8.00366 55.1987 10.9037 55.1987 16.5617C55.1987 24.3379 49.9316 26.5983 48.4228 26.5983C44.6087 26.5983 41.3535 23.6982 41.3535 18.0402ZM52.9633 18.1824C52.628 12.9224 50.1831 9.51057 46.9 9.6243C45.419 9.69538 43.2396 11.0886 43.5749 16.448C43.9381 21.708 46.397 25.1198 49.6802 25.0061C51.1471 24.935 53.3266 23.5276 52.9633 18.1824Z" fill="#141414"/>
<path d="M71.2658 25.1056L74.0181 26.0297V26.2287H65.901V26.0297L68.6532 25.1056V13.8749C68.6532 11.1738 67.0466 10.0508 65.3282 10.0508C64.0848 10.0508 62.9531 11.1738 62.1149 12.3396V25.1056L64.8671 26.0297V26.2287H56.75V26.0297L59.5023 25.1056V10.1219L55.8419 12.169L55.7441 11.9984C57.2809 10.4915 58.9574 8.00366 60.2009 8.00366C60.8715 8.00366 61.5141 8.24534 61.9752 11.515C63.8473 9.19781 65.5657 8.03209 66.2363 8.03209C68.9885 8.03209 71.2658 9.46792 71.2658 13.8038V25.1056Z" fill="#141414"/>
<path d="M87.7649 8.55786L78.1389 25.5887H81.7295C85.7251 25.5887 85.7251 24.0534 87.3597 18.0826H87.5553L87.5833 26.1716L87.4855 26.2427H75.1492L75.219 26.2142L75.0234 26.2427V26.0436L84.5795 8.98434H81.1986C77.0352 8.98434 77.2448 10.5197 75.694 15.538H75.4984L75.4705 8.47256L75.5683 8.37305H87.7789V8.55786H87.7649Z" fill="#141414"/>
<path d="M105.801 22.3049L105.899 22.4755C104.362 24.0108 102.685 26.4986 101.442 26.4986C100.743 26.4986 100.073 26.1859 99.5978 22.4755C97.7537 25.276 96.2728 26.5981 93.8698 26.5981C91.6205 26.5981 90.4888 25.404 90.4888 23.698C90.4888 20.9401 93.8139 18.4381 97.125 16.2204L99.6118 14.685C99.6398 11.9271 99.2765 9.4251 96.622 9.46775C94.1352 9.46775 92.8359 11.6144 93.1992 14.8556L90.0138 16.3199L89.916 16.2488C92.333 9.83736 96.5522 7.86133 97.8655 7.86133C101.749 7.86133 102.532 10.7614 102.392 13.4198L102.155 22.4328V24.3378L105.801 22.3049ZM99.528 21.6509L99.5978 15.4811C95.3088 18.2391 93.3948 20.3573 93.3948 22.5465C93.3948 24.0108 94.233 24.8353 95.3367 24.8353C96.5103 24.8353 98.0191 23.8686 99.528 21.6509Z" fill="#141414"/>
<path d="M113.654 26.0296V26.2286H105.537V26.0296L108.289 25.1055V1.97595L105.174 1.87644V1.6632L110.706 0.27002H110.902V25.1055L113.654 26.0296Z" fill="#141414"/>
<path d="M123.713 23.5703C122.107 25.3473 120.165 26.6125 119.424 26.6125C117.58 26.6125 116.434 25.3189 116.434 22.76L116.406 9.14095L113.752 8.55809V8.34485H116.532L118.907 4.27905H119.075L119.005 8.34485H127.164L126.591 9.66695C124.314 9.66695 120.919 9.2689 119.019 9.06987V22.4756C119.019 23.9399 119.662 24.6933 121.003 24.6933C121.701 24.6933 122.344 24.5228 123.587 23.3997L123.713 23.5703Z" fill="#141414"/>
<path d="M126.59 9.53888L123.838 8.54376V8.34473H129.231V9.53888L129.203 25.0913L131.955 26.0153V26.2144H123.838V26.0153L126.59 25.0913V9.53888ZM125.989 3.12743C125.989 2.17495 126.758 1.39307 127.806 1.39307C128.812 1.39307 129.552 2.17495 129.552 3.12743C129.552 4.17942 128.812 4.93287 127.806 4.93287C126.758 4.93287 125.989 4.19363 125.989 3.12743Z" fill="#141414"/>
<path d="M147.379 25.1056L150.131 26.0297V26.2287H142.014V26.0297L144.767 25.1056V13.8749C144.767 11.1738 143.16 10.0508 141.441 10.0508C140.198 10.0508 139.066 11.1738 138.228 12.3396V25.1056L140.98 26.0297V26.2287H132.863V26.0297L135.616 25.1056V10.1219L131.955 12.169L131.857 11.9984C133.394 10.4915 135.071 8.00366 136.314 8.00366C136.985 8.00366 137.627 8.24534 138.088 11.515C139.961 9.19781 141.679 8.03209 142.35 8.03209C145.102 8.03209 147.379 9.46792 147.379 13.8038V25.1056Z" fill="#141414"/>
<path d="M168 9.48209C166.352 9.48209 163.641 9.14091 161.769 8.72864L161.741 8.82815C163.683 9.95122 164.493 11.6998 164.493 13.6048C164.493 17.898 159.995 20.329 158.556 20.329C157.145 20.329 155.845 20.0162 154.84 19.4049C154.001 20.2295 153.191 20.9687 153.191 21.9354C153.191 22.9874 153.862 23.9825 155.971 24.1247L161.434 24.5369C163.543 24.6791 166.463 25.0771 166.463 28.0483C166.463 29.2709 165.485 35.0142 157.913 35.0142C154.085 35.0142 150.509 33.4788 150.229 30.7778C150.201 30.4082 151.095 29.6547 154.854 26.3424C152.604 26.0296 150.76 24.9492 150.76 22.9589C150.76 22.6178 152.604 21.1108 154.379 19.1064C153.065 18.1539 152.297 16.647 152.297 14.5715C152.297 10.2355 156.823 7.88989 158.234 7.88989C159.003 7.88989 161.755 8.37324 164.074 8.37324H168V9.48209ZM159.855 26.712L155.468 26.3992C153.82 27.6218 152.856 28.7165 152.856 29.7116C152.856 31.6165 155.971 33.095 159.827 33.095C163.488 33.095 165.667 31.4175 165.667 29.6121C165.653 27.4512 162.663 26.9394 159.855 26.712ZM157.438 9.24042C155.762 9.26885 154.225 10.4061 154.448 13.6474C154.686 16.8176 156.698 19.0069 159.073 19.0069C160.945 19.0069 162.496 17.8412 162.23 14.6425C161.993 11.387 160.023 9.24042 157.438 9.24042Z" fill="#141414"/>
<path d="M7.65605 26.5983C13.2304 26.5983 14.7952 23.3144 14.7952 20.9972C14.7952 18.3103 12.7694 16.8887 10.3943 15.2965L6.06337 12.2543C4.62437 11.3302 3.93979 10.7331 3.93979 9.97969C3.93979 9.2831 4.35892 9.08408 5.01555 9.08408C6.70603 9.08408 10.3943 11.2449 13.7054 16.3769H13.901L13.929 9.65272C15.0886 9.88018 16.1923 9.97969 17.7151 9.97969V8.55808H13.901C12.3084 6.92323 10.6179 4.73396 10.6179 3.31235C10.6179 2.51625 11.0091 1.81966 11.987 1.81966C13.6775 1.81966 16.2901 4.33591 17.5614 7.34972L17.743 7.39236L20.5791 2.68684C19.3497 1.12307 17.4217 0 14.7812 0C13.8452 0 7.65605 1.12307 8.01929 7.49188L8.06121 8.06052C7.85164 8.0463 7.64208 8.01787 7.43252 8.01787C3.49272 8.01787 0.754428 10.2071 0.754428 13.5195C0.754428 15.7088 2.02578 17.301 4.45672 18.8221L8.39651 21.4094C11.0091 23.1011 11.6517 23.6982 11.6517 24.4517C11.6517 25.1767 11.1627 25.4752 10.576 25.4752C8.06121 25.4752 2.96183 21.9923 0.195593 16.7323H0L0.684574 25.9728C3.12948 25.5747 4.49863 26.5983 7.65605 26.5983Z" fill="#141414"/>
</g>
<defs>
<clipPath id="clip0">
<rect width="168" height="35" fill="white"/>
</clipPath>
</defs>
</svg>
