<svg width="238" height="183" viewBox="0 0 238 183" fill="none" xmlns="http://www.w3.org/2000/svg">
<g clip-path="url(#clip0)">
<path d="M111.824 85.7024C130.087 85.7024 135.203 75.1256 135.203 67.6732C135.203 59.0173 128.583 54.4348 120.782 49.32L106.593 39.5069C101.894 36.5213 99.6486 34.6004 99.6486 32.1471C99.6486 29.9021 101.037 29.2541 103.167 29.2541C108.722 29.2541 120.782 36.1973 131.661 52.7453H132.309L132.402 31.0825C136.221 31.8231 139.832 32.1471 144.809 32.1471V27.5414H132.309C127.078 22.3109 121.523 15.2519 121.523 10.6694C121.523 8.10042 122.796 5.85544 126.013 5.85544C131.569 5.85544 140.11 13.9559 144.276 23.6764L144.925 23.7921L154.207 8.63273C150.156 3.63362 143.86 0 135.226 0C132.124 0 111.847 3.63362 113.028 24.1161L113.143 25.9445C112.449 25.8982 111.778 25.8288 111.083 25.8288C98.1672 25.8288 89.2092 32.8877 89.2092 43.5571C89.2092 50.5929 93.3525 55.7309 101.361 60.6374L114.278 68.9693C122.819 74.4081 124.949 76.3291 124.949 78.7823C124.949 81.1199 123.351 82.0919 121.43 82.0919C113.213 82.0919 96.4543 70.8671 87.3805 53.9025H86.7324L88.9546 83.6889C96.9635 82.416 101.454 85.7024 111.824 85.7024Z" fill="white"/>
<path d="M14.9994 150.621L26.9434 168.396V168.72H16.5503V168.396L20.9483 167.007L11.7125 153.676L9.49037 155.736V166.892L14.0504 168.396V168.72H0.601828V168.396L5.16184 166.892V129.236L0 129.074V128.75L9.16631 126.482H9.49037V154.486L17.7771 146.548C20.8325 143.724 20.8325 141.618 15.9947 139.952V139.628H26.4342V139.952L14.9994 150.621Z" fill="white"/>
<path d="M28.1699 155.389C28.1699 142.776 36.8964 139.05 39.3963 139.05C45.7387 139.05 51.1088 143.771 51.1088 152.982C51.1088 165.642 42.3823 169.322 39.8824 169.322C33.5632 169.345 28.1699 164.624 28.1699 155.389ZM47.3821 155.621C46.8266 147.057 42.7758 141.503 37.3362 141.688C34.8826 141.804 31.2717 144.072 31.8272 152.797C32.429 161.36 36.5029 166.915 41.9425 166.73C44.3961 166.614 48.0071 164.346 47.3821 155.621Z" fill="white"/>
<path d="M77.7283 166.892L82.2883 168.396V168.72H68.8398V168.396L73.3998 166.892V148.608C73.3998 144.21 70.7378 142.382 67.8907 142.382C65.8306 142.382 63.9557 144.21 62.5669 146.108V166.892L67.1269 168.396V168.72H53.6783V168.396L58.2383 166.892V142.521L52.1738 145.854L52.0117 145.576C54.5579 143.123 57.3356 139.073 59.3957 139.073C60.5068 139.073 61.5715 139.466 62.3354 144.789C65.4371 141.017 68.2842 139.119 69.3953 139.119C73.9553 139.119 77.7283 141.456 77.7283 148.515V166.892Z" fill="white"/>
<path d="M105.042 139.952L89.1169 167.679H95.0658C101.686 167.679 101.686 165.179 104.394 155.459H104.718L104.764 168.627L104.602 168.743H84.1634L84.2791 168.697L83.9551 168.743V168.419L99.7878 140.646H94.1862C87.2883 140.646 87.6355 143.146 85.0661 151.316H84.7189L84.6726 139.813L84.8347 139.651H105.065V139.952H105.042Z" fill="white"/>
<path d="M134.949 162.332L135.111 162.61C132.565 165.11 129.787 169.16 127.727 169.16C126.57 169.16 125.459 168.651 124.672 162.61C121.616 167.17 119.163 169.322 115.182 169.322C111.455 169.322 109.58 167.378 109.58 164.601C109.58 160.111 115.089 156.037 120.575 152.427L124.695 149.927C124.741 145.437 124.14 141.364 119.742 141.433C115.621 141.433 113.469 144.928 114.07 150.205L108.793 152.589L108.631 152.473C112.635 142.035 119.626 138.818 121.802 138.818C128.237 138.818 129.533 143.54 129.301 147.867L128.908 162.541V165.642L134.949 162.332ZM124.556 161.291L124.672 151.246C117.566 155.736 114.395 159.185 114.395 162.749C114.395 165.133 115.783 166.475 117.612 166.475C119.556 166.452 122.056 164.901 124.556 161.291Z" fill="white"/>
<path d="M147.933 168.396V168.72H134.485V168.396L139.045 166.892V129.236L133.883 129.074V128.75L143.049 126.482H143.373V166.915L147.933 168.396Z" fill="white"/>
<path d="M164.6 164.392C161.938 167.285 158.72 169.345 157.493 169.345C154.438 169.345 152.54 167.239 152.54 163.073L152.494 140.901L148.096 139.952V139.628H152.702L156.637 133.009H156.915L156.799 139.628H170.317L169.345 141.757C165.572 141.757 159.947 141.109 156.799 140.785V162.61C156.799 164.994 157.864 166.22 160.086 166.22C161.243 166.22 162.308 165.943 164.368 164.114L164.6 164.392Z" fill="white"/>
<path d="M169.369 141.572L164.809 139.952V139.628H173.743V141.572L173.697 166.892L178.257 168.396V168.72H164.809V168.396L169.369 166.892V141.572ZM168.373 131.134C168.373 129.583 169.646 128.311 171.382 128.311C173.049 128.311 174.276 129.583 174.276 131.134C174.276 132.847 173.049 134.073 171.382 134.073C169.646 134.073 168.373 132.847 168.373 131.134Z" fill="white"/>
<path d="M203.834 166.892L208.394 168.396V168.72H194.945V168.396L199.505 166.892V148.608C199.505 144.21 196.843 142.382 193.996 142.382C191.936 142.382 190.061 144.21 188.672 146.108V166.892L193.232 168.396V168.72H179.784V168.396L184.344 166.892V142.521L178.279 145.854L178.117 145.576C180.663 143.123 183.441 139.073 185.501 139.073C186.612 139.073 187.677 139.466 188.441 144.789C191.543 141.017 194.39 139.119 195.501 139.119C200.061 139.119 203.834 141.456 203.834 148.515V166.892Z" fill="white"/>
<path d="M238.001 141.456C235.27 141.456 230.779 140.901 227.677 140.23L227.631 140.392C230.848 142.22 232.191 145.067 232.191 148.168C232.191 155.158 224.738 159.115 222.353 159.115C220.016 159.115 217.863 158.606 216.196 157.611C214.807 158.953 213.465 160.157 213.465 161.731C213.465 163.443 214.576 165.063 218.071 165.295L227.122 165.966C230.617 166.197 235.455 166.845 235.455 171.683C235.455 173.673 233.834 183.023 221.289 183.023C214.946 183.023 209.021 180.524 208.558 176.126C208.511 175.524 209.993 174.298 216.219 168.905C212.493 168.396 209.437 166.637 209.437 163.397C209.437 162.841 212.493 160.388 215.432 157.125C213.257 155.574 211.983 153.121 211.983 149.742C211.983 142.683 219.483 138.864 221.821 138.864C223.094 138.864 227.654 139.651 231.497 139.651H238.001V141.456ZM224.483 169.507L217.215 168.998C214.483 170.988 212.886 172.77 212.886 174.39C212.886 177.492 218.048 179.899 224.437 179.899C230.501 179.899 234.112 177.168 234.112 174.228C234.112 170.734 229.159 169.9 224.483 169.507ZM220.479 141.063C217.701 141.109 215.155 142.961 215.525 148.238C215.919 153.399 219.252 156.963 223.187 156.963C226.288 156.963 228.858 155.065 228.418 149.858C228.048 144.558 224.761 141.063 220.479 141.063Z" fill="white"/>
</g>
<defs>
<clipPath id="clip0">
<rect width="238" height="183" fill="white"/>
</clipPath>
</defs>
</svg>
