<svg width="1020" height="92" viewBox="0 0 1020 92" fill="none" xmlns="http://www.w3.org/2000/svg">
<path d="M78 34L78 1.00002L427 1.00004M427 1.00004L427 34M427 1.00004L592.5 1.00002M257.153 23L257.153 1.00003" stroke="#A4A4A4"/>
<path d="M593 34L593 1L942 1.00002L942 34M772.153 23L772.153 1.00001" stroke="#A4A4A4"/>
<path d="M28.0166 59.085H22.4707V63.6201H28.9131V65H20.7832V52.2031H28.8252V53.5918H22.4707V57.7051H28.0166V59.085ZM40.0225 52.2031V60.9043C40.0166 62.1113 39.6357 63.0986 38.8799 63.8662C38.1299 64.6338 37.1104 65.0645 35.8213 65.1582L35.373 65.1758C33.9727 65.1758 32.8564 64.7979 32.0244 64.042C31.1924 63.2861 30.7705 62.2461 30.7588 60.9219V52.2031H32.4287V60.8691C32.4287 61.7949 32.6836 62.5156 33.1934 63.0312C33.7031 63.541 34.4297 63.7959 35.373 63.7959C36.3281 63.7959 37.0576 63.541 37.5615 63.0312C38.0713 62.5215 38.3262 61.8037 38.3262 60.8779V52.2031H40.0225ZM48.6621 65H47.0361V55.4902H48.6621V65ZM46.9043 52.9678C46.9043 52.7041 46.9834 52.4814 47.1416 52.2998C47.3057 52.1182 47.5459 52.0273 47.8623 52.0273C48.1787 52.0273 48.4189 52.1182 48.583 52.2998C48.7471 52.4814 48.8291 52.7041 48.8291 52.9678C48.8291 53.2314 48.7471 53.4512 48.583 53.627C48.4189 53.8027 48.1787 53.8906 47.8623 53.8906C47.5459 53.8906 47.3057 53.8027 47.1416 53.627C46.9834 53.4512 46.9043 53.2314 46.9043 52.9678ZM57.2754 55.4902L57.3281 56.6855C58.0547 55.7715 59.0039 55.3145 60.1758 55.3145C62.1855 55.3145 63.1992 56.4482 63.2168 58.7158V65H61.5908V58.707C61.585 58.0215 61.4268 57.5146 61.1162 57.1865C60.8115 56.8584 60.334 56.6943 59.6836 56.6943C59.1562 56.6943 58.6934 56.835 58.2949 57.1162C57.8965 57.3975 57.5859 57.7666 57.3633 58.2236V65H55.7373V55.4902H57.2754ZM71.54 65C71.4463 64.8125 71.3701 64.4785 71.3115 63.998C70.5557 64.7832 69.6533 65.1758 68.6045 65.1758C67.667 65.1758 66.8965 64.9121 66.293 64.3848C65.6953 63.8516 65.3965 63.1777 65.3965 62.3633C65.3965 61.373 65.7715 60.6055 66.5215 60.0605C67.2773 59.5098 68.3379 59.2344 69.7031 59.2344H71.2852V58.4873C71.2852 57.9189 71.1152 57.4678 70.7754 57.1338C70.4355 56.7939 69.9346 56.624 69.2725 56.624C68.6924 56.624 68.2061 56.7705 67.8135 57.0635C67.4209 57.3564 67.2246 57.7109 67.2246 58.127H65.5898C65.5898 57.6523 65.7568 57.1953 66.0908 56.7559C66.4307 56.3105 66.8877 55.959 67.4619 55.7012C68.042 55.4434 68.6777 55.3145 69.3691 55.3145C70.4648 55.3145 71.3232 55.5898 71.9443 56.1406C72.5654 56.6855 72.8877 57.4385 72.9111 58.3994V62.7764C72.9111 63.6494 73.0225 64.3438 73.2451 64.8594V65H71.54ZM68.8418 63.7607C69.3516 63.7607 69.835 63.6289 70.292 63.3652C70.749 63.1016 71.0801 62.7588 71.2852 62.3369V60.3857H70.0107C68.0186 60.3857 67.0225 60.9688 67.0225 62.1348C67.0225 62.6445 67.1924 63.043 67.5322 63.3301C67.8721 63.6172 68.3086 63.7607 68.8418 63.7607ZM79.2744 63.8486C79.8545 63.8486 80.3613 63.6729 80.7949 63.3213C81.2285 62.9697 81.4688 62.5303 81.5156 62.0029H83.0537C83.0244 62.5479 82.8369 63.0664 82.4912 63.5586C82.1455 64.0508 81.6826 64.4434 81.1025 64.7363C80.5283 65.0293 79.9189 65.1758 79.2744 65.1758C77.9795 65.1758 76.9482 64.7451 76.1807 63.8838C75.4189 63.0166 75.0381 61.833 75.0381 60.333V60.0605C75.0381 59.1348 75.208 58.3115 75.5479 57.5908C75.8877 56.8701 76.374 56.3105 77.0068 55.9121C77.6455 55.5137 78.3984 55.3145 79.2656 55.3145C80.332 55.3145 81.2168 55.6338 81.9199 56.2725C82.6289 56.9111 83.0068 57.7402 83.0537 58.7598H81.5156C81.4688 58.1445 81.2344 57.6406 80.8125 57.248C80.3965 56.8496 79.8809 56.6504 79.2656 56.6504C78.4395 56.6504 77.7979 56.9492 77.3408 57.5469C76.8896 58.1387 76.6641 58.9971 76.6641 60.1221V60.4297C76.6641 61.5254 76.8896 62.3691 77.3408 62.9609C77.792 63.5527 78.4365 63.8486 79.2744 63.8486ZM86.6484 65H85.0225V55.4902H86.6484V65ZM84.8906 52.9678C84.8906 52.7041 84.9697 52.4814 85.1279 52.2998C85.292 52.1182 85.5322 52.0273 85.8486 52.0273C86.165 52.0273 86.4053 52.1182 86.5693 52.2998C86.7334 52.4814 86.8154 52.7041 86.8154 52.9678C86.8154 53.2314 86.7334 53.4512 86.5693 53.627C86.4053 53.8027 86.165 53.8906 85.8486 53.8906C85.5322 53.8906 85.292 53.8027 85.1279 53.627C84.9697 53.4512 84.8906 53.2314 84.8906 52.9678ZM88.8281 60.1572C88.8281 59.2256 89.0098 58.3877 89.373 57.6436C89.7422 56.8994 90.252 56.3252 90.9023 55.9209C91.5586 55.5166 92.3057 55.3145 93.1436 55.3145C94.4385 55.3145 95.4844 55.7627 96.2812 56.6592C97.084 57.5557 97.4854 58.748 97.4854 60.2363V60.3506C97.4854 61.2764 97.3066 62.1084 96.9492 62.8467C96.5977 63.5791 96.0908 64.1504 95.4287 64.5605C94.7725 64.9707 94.0166 65.1758 93.1611 65.1758C91.8721 65.1758 90.8262 64.7275 90.0234 63.8311C89.2266 62.9346 88.8281 61.748 88.8281 60.2715V60.1572ZM90.4629 60.3506C90.4629 61.4053 90.7061 62.252 91.1924 62.8906C91.6846 63.5293 92.3408 63.8486 93.1611 63.8486C93.9873 63.8486 94.6436 63.5264 95.1299 62.8818C95.6162 62.2314 95.8594 61.3232 95.8594 60.1572C95.8594 59.1143 95.6104 58.2705 95.1123 57.626C94.6201 56.9756 93.9639 56.6504 93.1436 56.6504C92.3408 56.6504 91.6934 56.9697 91.2012 57.6084C90.709 58.2471 90.4629 59.1611 90.4629 60.3506ZM101.062 55.4902L101.115 56.6855C101.842 55.7715 102.791 55.3145 103.963 55.3145C105.973 55.3145 106.986 56.4482 107.004 58.7158V65H105.378V58.707C105.372 58.0215 105.214 57.5146 104.903 57.1865C104.599 56.8584 104.121 56.6943 103.471 56.6943C102.943 56.6943 102.48 56.835 102.082 57.1162C101.684 57.3975 101.373 57.7666 101.15 58.2236V65H99.5244V55.4902H101.062ZM115.327 65C115.233 64.8125 115.157 64.4785 115.099 63.998C114.343 64.7832 113.44 65.1758 112.392 65.1758C111.454 65.1758 110.684 64.9121 110.08 64.3848C109.482 63.8516 109.184 63.1777 109.184 62.3633C109.184 61.373 109.559 60.6055 110.309 60.0605C111.064 59.5098 112.125 59.2344 113.49 59.2344H115.072V58.4873C115.072 57.9189 114.902 57.4678 114.562 57.1338C114.223 56.7939 113.722 56.624 113.06 56.624C112.479 56.624 111.993 56.7705 111.601 57.0635C111.208 57.3564 111.012 57.7109 111.012 58.127H109.377C109.377 57.6523 109.544 57.1953 109.878 56.7559C110.218 56.3105 110.675 55.959 111.249 55.7012C111.829 55.4434 112.465 55.3145 113.156 55.3145C114.252 55.3145 115.11 55.5898 115.731 56.1406C116.353 56.6855 116.675 57.4385 116.698 58.3994V62.7764C116.698 63.6494 116.81 64.3438 117.032 64.8594V65H115.327ZM112.629 63.7607C113.139 63.7607 113.622 63.6289 114.079 63.3652C114.536 63.1016 114.867 62.7588 115.072 62.3369V60.3857H113.798C111.806 60.3857 110.81 60.9688 110.81 62.1348C110.81 62.6445 110.979 63.043 111.319 63.3301C111.659 63.6172 112.096 63.7607 112.629 63.7607ZM121.014 65H119.388V51.5H121.014V65ZM125.162 55.4902L125.215 56.6855C125.941 55.7715 126.891 55.3145 128.062 55.3145C130.072 55.3145 131.086 56.4482 131.104 58.7158V65H129.478V58.707C129.472 58.0215 129.313 57.5146 129.003 57.1865C128.698 56.8584 128.221 56.6943 127.57 56.6943C127.043 56.6943 126.58 56.835 126.182 57.1162C125.783 57.3975 125.473 57.7666 125.25 58.2236V65H123.624V55.4902H125.162ZM135.322 65H133.696V55.4902H135.322V65ZM133.564 52.9678C133.564 52.7041 133.644 52.4814 133.802 52.2998C133.966 52.1182 134.206 52.0273 134.522 52.0273C134.839 52.0273 135.079 52.1182 135.243 52.2998C135.407 52.4814 135.489 52.7041 135.489 52.9678C135.489 53.2314 135.407 53.4512 135.243 53.627C135.079 53.8027 134.839 53.8906 134.522 53.8906C134.206 53.8906 133.966 53.8027 133.802 53.627C133.644 53.4512 133.564 53.2314 133.564 52.9678ZM55.2627 81.3506C55.2627 82.7979 54.9316 83.9639 54.2695 84.8486C53.6074 85.7334 52.7109 86.1758 51.5801 86.1758C50.4258 86.1758 49.5176 85.8096 48.8555 85.0771V89.6562H47.2295V76.4902H48.7148L48.7939 77.5449C49.4561 76.7246 50.376 76.3145 51.5537 76.3145C52.6963 76.3145 53.5986 76.7451 54.2607 77.6064C54.9287 78.4678 55.2627 79.666 55.2627 81.2012V81.3506ZM53.6367 81.166C53.6367 80.0938 53.4082 79.2471 52.9512 78.626C52.4941 78.0049 51.8672 77.6943 51.0703 77.6943C50.0859 77.6943 49.3477 78.1309 48.8555 79.0039V83.5479C49.3418 84.415 50.0859 84.8486 51.0879 84.8486C51.8672 84.8486 52.4854 84.541 52.9424 83.9258C53.4053 83.3047 53.6367 82.3848 53.6367 81.166ZM61.9336 77.9492C61.6875 77.9082 61.4209 77.8877 61.1338 77.8877C60.0674 77.8877 59.3438 78.3418 58.9629 79.25V86H57.3369V76.4902H58.9189L58.9453 77.5889C59.4785 76.7393 60.2344 76.3145 61.2129 76.3145C61.5293 76.3145 61.7695 76.3555 61.9336 76.4375V77.9492ZM62.8301 81.1572C62.8301 80.2256 63.0117 79.3877 63.375 78.6436C63.7441 77.8994 64.2539 77.3252 64.9043 76.9209C65.5605 76.5166 66.3076 76.3145 67.1455 76.3145C68.4404 76.3145 69.4863 76.7627 70.2832 77.6592C71.0859 78.5557 71.4873 79.748 71.4873 81.2363V81.3506C71.4873 82.2764 71.3086 83.1084 70.9512 83.8467C70.5996 84.5791 70.0928 85.1504 69.4307 85.5605C68.7744 85.9707 68.0186 86.1758 67.1631 86.1758C65.874 86.1758 64.8281 85.7275 64.0254 84.8311C63.2285 83.9346 62.8301 82.748 62.8301 81.2715V81.1572ZM64.4648 81.3506C64.4648 82.4053 64.708 83.252 65.1943 83.8906C65.6865 84.5293 66.3428 84.8486 67.1631 84.8486C67.9893 84.8486 68.6455 84.5264 69.1318 83.8818C69.6182 83.2314 69.8613 82.3232 69.8613 81.1572C69.8613 80.1143 69.6123 79.2705 69.1143 78.626C68.6221 77.9756 67.9658 77.6504 67.1455 77.6504C66.3428 77.6504 65.6953 77.9697 65.2031 78.6084C64.7109 79.2471 64.4648 80.1611 64.4648 81.3506ZM75.2051 76.4902V87.0986C75.2051 88.9268 74.376 89.8408 72.7178 89.8408C72.3604 89.8408 72.0293 89.7881 71.7246 89.6826V88.3818C71.9121 88.4287 72.1582 88.4521 72.4629 88.4521C72.8262 88.4521 73.1016 88.3525 73.2891 88.1533C73.4824 87.96 73.5791 87.6201 73.5791 87.1338V76.4902H75.2051ZM73.4121 73.9678C73.4121 73.71 73.4912 73.4902 73.6494 73.3086C73.8135 73.1211 74.0508 73.0273 74.3613 73.0273C74.6777 73.0273 74.918 73.1182 75.082 73.2998C75.2461 73.4814 75.3281 73.7041 75.3281 73.9678C75.3281 74.2314 75.2461 74.4512 75.082 74.627C74.918 74.8027 74.6777 74.8906 74.3613 74.8906C74.0449 74.8906 73.8076 74.8027 73.6494 74.627C73.4912 74.4512 73.4121 74.2314 73.4121 73.9678ZM81.7793 86.1758C80.4902 86.1758 79.4414 85.7539 78.6328 84.9102C77.8242 84.0605 77.4199 82.9268 77.4199 81.5088V81.21C77.4199 80.2666 77.5986 79.4258 77.9561 78.6875C78.3193 77.9434 78.8232 77.3633 79.4678 76.9473C80.1182 76.5254 80.8213 76.3145 81.5771 76.3145C82.8135 76.3145 83.7744 76.7217 84.46 77.5361C85.1455 78.3506 85.4883 79.5166 85.4883 81.0342V81.7109H79.0459C79.0693 82.6484 79.3418 83.4072 79.8633 83.9873C80.3906 84.5615 81.0586 84.8486 81.8672 84.8486C82.4414 84.8486 82.9277 84.7314 83.3262 84.4971C83.7246 84.2627 84.0732 83.9521 84.3721 83.5654L85.3652 84.3389C84.5684 85.5635 83.373 86.1758 81.7793 86.1758ZM81.5771 77.6504C80.9209 77.6504 80.3701 77.8906 79.9248 78.3711C79.4795 78.8457 79.2041 79.5137 79.0986 80.375H83.8623V80.252C83.8154 79.4258 83.5928 78.7871 83.1943 78.3359C82.7959 77.8789 82.2568 77.6504 81.5771 77.6504ZM90.0322 81.5967L89.0127 82.6602V86H87.3867V72.5H89.0127V80.665L89.8828 79.6191L92.8447 76.4902H94.8223L91.1221 80.4629L95.2529 86H93.3457L90.0322 81.5967ZM98.707 74.1875V76.4902H100.482V77.7471H98.707V83.6445C98.707 84.0254 98.7861 84.3125 98.9443 84.5059C99.1025 84.6934 99.3721 84.7871 99.7529 84.7871C99.9404 84.7871 100.198 84.752 100.526 84.6816V86C100.099 86.1172 99.6826 86.1758 99.2783 86.1758C98.5518 86.1758 98.0039 85.9561 97.6348 85.5166C97.2656 85.0771 97.0811 84.4531 97.0811 83.6445V77.7471H95.3496V76.4902H97.0811V74.1875H98.707ZM104.156 86H102.53V76.4902H104.156V86ZM102.398 73.9678C102.398 73.7041 102.478 73.4814 102.636 73.2998C102.8 73.1182 103.04 73.0273 103.356 73.0273C103.673 73.0273 103.913 73.1182 104.077 73.2998C104.241 73.4814 104.323 73.7041 104.323 73.9678C104.323 74.2314 104.241 74.4512 104.077 74.627C103.913 74.8027 103.673 74.8906 103.356 74.8906C103.04 74.8906 102.8 74.8027 102.636 74.627C102.478 74.4512 102.398 74.2314 102.398 73.9678Z" fill="#A4A4A4"/>
<path d="M192.84 59.9902V65H191.152V52.2031H195.872C197.272 52.2031 198.368 52.5605 199.159 53.2754C199.956 53.9902 200.354 54.9365 200.354 56.1143C200.354 57.3564 199.965 58.3145 199.186 58.9883C198.412 59.6562 197.302 59.9902 195.854 59.9902H192.84ZM192.84 58.6104H195.872C196.774 58.6104 197.466 58.3994 197.946 57.9775C198.427 57.5498 198.667 56.9346 198.667 56.1318C198.667 55.3701 198.427 54.7607 197.946 54.3037C197.466 53.8467 196.807 53.6094 195.969 53.5918H192.84V58.6104ZM201.699 60.1572C201.699 59.2256 201.881 58.3877 202.244 57.6436C202.613 56.8994 203.123 56.3252 203.773 55.9209C204.43 55.5166 205.177 55.3145 206.015 55.3145C207.31 55.3145 208.355 55.7627 209.152 56.6592C209.955 57.5557 210.356 58.748 210.356 60.2363V60.3506C210.356 61.2764 210.178 62.1084 209.82 62.8467C209.469 63.5791 208.962 64.1504 208.3 64.5605C207.644 64.9707 206.888 65.1758 206.032 65.1758C204.743 65.1758 203.697 64.7275 202.895 63.8311C202.098 62.9346 201.699 61.748 201.699 60.2715V60.1572ZM203.334 60.3506C203.334 61.4053 203.577 62.252 204.063 62.8906C204.556 63.5293 205.212 63.8486 206.032 63.8486C206.858 63.8486 207.515 63.5264 208.001 62.8818C208.487 62.2314 208.73 61.3232 208.73 60.1572C208.73 59.1143 208.481 58.2705 207.983 57.626C207.491 56.9756 206.835 56.6504 206.015 56.6504C205.212 56.6504 204.564 56.9697 204.072 57.6084C203.58 58.2471 203.334 59.1611 203.334 60.3506ZM217.933 62.4775C217.933 62.0381 217.766 61.6982 217.432 61.458C217.104 61.2119 216.526 61.001 215.7 60.8252C214.88 60.6494 214.227 60.4385 213.74 60.1924C213.26 59.9463 212.902 59.6533 212.668 59.3135C212.439 58.9736 212.325 58.5693 212.325 58.1006C212.325 57.3213 212.653 56.6621 213.31 56.123C213.972 55.584 214.815 55.3145 215.841 55.3145C216.919 55.3145 217.792 55.5928 218.46 56.1494C219.134 56.7061 219.471 57.418 219.471 58.2852H217.836C217.836 57.8398 217.646 57.4561 217.265 57.1338C216.89 56.8115 216.415 56.6504 215.841 56.6504C215.249 56.6504 214.786 56.7793 214.452 57.0371C214.118 57.2949 213.951 57.6318 213.951 58.0479C213.951 58.4404 214.106 58.7363 214.417 58.9355C214.728 59.1348 215.287 59.3252 216.096 59.5068C216.91 59.6885 217.569 59.9053 218.073 60.1572C218.577 60.4092 218.949 60.7139 219.189 61.0713C219.436 61.4229 219.559 61.8535 219.559 62.3633C219.559 63.2129 219.219 63.8955 218.539 64.4111C217.859 64.9209 216.978 65.1758 215.894 65.1758C215.132 65.1758 214.458 65.041 213.872 64.7715C213.286 64.502 212.826 64.127 212.492 63.6465C212.164 63.1602 212 62.6357 212 62.0732H213.626C213.655 62.6182 213.872 63.0518 214.276 63.374C214.687 63.6904 215.226 63.8486 215.894 63.8486C216.509 63.8486 217.001 63.7256 217.37 63.4795C217.745 63.2275 217.933 62.8936 217.933 62.4775ZM223.443 65H221.817V51.5H223.443V65ZM225.623 60.1572C225.623 59.2256 225.805 58.3877 226.168 57.6436C226.537 56.8994 227.047 56.3252 227.697 55.9209C228.354 55.5166 229.101 55.3145 229.938 55.3145C231.233 55.3145 232.279 55.7627 233.076 56.6592C233.879 57.5557 234.28 58.748 234.28 60.2363V60.3506C234.28 61.2764 234.102 62.1084 233.744 62.8467C233.393 63.5791 232.886 64.1504 232.224 64.5605C231.567 64.9707 230.812 65.1758 229.956 65.1758C228.667 65.1758 227.621 64.7275 226.818 63.8311C226.021 62.9346 225.623 61.748 225.623 60.2715V60.1572ZM227.258 60.3506C227.258 61.4053 227.501 62.252 227.987 62.8906C228.479 63.5293 229.136 63.8486 229.956 63.8486C230.782 63.8486 231.438 63.5264 231.925 62.8818C232.411 62.2314 232.654 61.3232 232.654 60.1572C232.654 59.1143 232.405 58.2705 231.907 57.626C231.415 56.9756 230.759 56.6504 229.938 56.6504C229.136 56.6504 228.488 56.9697 227.996 57.6084C227.504 58.2471 227.258 59.1611 227.258 60.3506ZM239.316 62.7939L241.672 55.4902H243.333L239.923 65H238.684L235.238 55.4902H236.899L239.316 62.7939ZM246.436 55.4902L246.488 56.6855C247.215 55.7715 248.164 55.3145 249.336 55.3145C251.346 55.3145 252.359 56.4482 252.377 58.7158V65H250.751V58.707C250.745 58.0215 250.587 57.5146 250.276 57.1865C249.972 56.8584 249.494 56.6943 248.844 56.6943C248.316 56.6943 247.854 56.835 247.455 57.1162C247.057 57.3975 246.746 57.7666 246.523 58.2236V65H244.897V55.4902H246.436ZM256.596 65H254.97V55.4902H256.596V65ZM254.838 52.9678C254.838 52.7041 254.917 52.4814 255.075 52.2998C255.239 52.1182 255.479 52.0273 255.796 52.0273C256.112 52.0273 256.353 52.1182 256.517 52.2998C256.681 52.4814 256.763 52.7041 256.763 52.9678C256.763 53.2314 256.681 53.4512 256.517 53.627C256.353 53.8027 256.112 53.8906 255.796 53.8906C255.479 53.8906 255.239 53.8027 255.075 53.627C254.917 53.4512 254.838 53.2314 254.838 52.9678ZM271.704 60.3506C271.704 61.7979 271.373 62.9639 270.711 63.8486C270.049 64.7334 269.152 65.1758 268.021 65.1758C266.867 65.1758 265.959 64.8096 265.297 64.0771V68.6562H263.671V55.4902H265.156L265.235 56.5449C265.897 55.7246 266.817 55.3145 267.995 55.3145C269.138 55.3145 270.04 55.7451 270.702 56.6064C271.37 57.4678 271.704 58.666 271.704 60.2012V60.3506ZM270.078 60.166C270.078 59.0938 269.85 58.2471 269.393 57.626C268.936 57.0049 268.309 56.6943 267.512 56.6943C266.527 56.6943 265.789 57.1309 265.297 58.0039V62.5479C265.783 63.415 266.527 63.8486 267.529 63.8486C268.309 63.8486 268.927 63.541 269.384 62.9258C269.847 62.3047 270.078 61.3848 270.078 60.166ZM275.545 65H273.919V51.5H275.545V65ZM284.026 65C283.933 64.8125 283.856 64.4785 283.798 63.998C283.042 64.7832 282.14 65.1758 281.091 65.1758C280.153 65.1758 279.383 64.9121 278.779 64.3848C278.182 63.8516 277.883 63.1777 277.883 62.3633C277.883 61.373 278.258 60.6055 279.008 60.0605C279.764 59.5098 280.824 59.2344 282.189 59.2344H283.771V58.4873C283.771 57.9189 283.602 57.4678 283.262 57.1338C282.922 56.7939 282.421 56.624 281.759 56.624C281.179 56.624 280.692 56.7705 280.3 57.0635C279.907 57.3564 279.711 57.7109 279.711 58.127H278.076C278.076 57.6523 278.243 57.1953 278.577 56.7559C278.917 56.3105 279.374 55.959 279.948 55.7012C280.528 55.4434 281.164 55.3145 281.855 55.3145C282.951 55.3145 283.81 55.5898 284.431 56.1406C285.052 56.6855 285.374 57.4385 285.397 58.3994V62.7764C285.397 63.6494 285.509 64.3438 285.731 64.8594V65H284.026ZM281.328 63.7607C281.838 63.7607 282.321 63.6289 282.778 63.3652C283.235 63.1016 283.566 62.7588 283.771 62.3369V60.3857H282.497C280.505 60.3857 279.509 60.9688 279.509 62.1348C279.509 62.6445 279.679 63.043 280.019 63.3301C280.358 63.6172 280.795 63.7607 281.328 63.7607ZM289.484 55.4902L289.537 56.6855C290.264 55.7715 291.213 55.3145 292.385 55.3145C294.395 55.3145 295.408 56.4482 295.426 58.7158V65H293.8V58.707C293.794 58.0215 293.636 57.5146 293.325 57.1865C293.021 56.8584 292.543 56.6943 291.893 56.6943C291.365 56.6943 290.902 56.835 290.504 57.1162C290.105 57.3975 289.795 57.7666 289.572 58.2236V65H287.946V55.4902H289.484ZM297.447 60.1572C297.447 59.2256 297.629 58.3877 297.992 57.6436C298.361 56.8994 298.871 56.3252 299.521 55.9209C300.178 55.5166 300.925 55.3145 301.763 55.3145C303.058 55.3145 304.104 55.7627 304.9 56.6592C305.703 57.5557 306.104 58.748 306.104 60.2363V60.3506C306.104 61.2764 305.926 62.1084 305.568 62.8467C305.217 63.5791 304.71 64.1504 304.048 64.5605C303.392 64.9707 302.636 65.1758 301.78 65.1758C300.491 65.1758 299.445 64.7275 298.643 63.8311C297.846 62.9346 297.447 61.748 297.447 60.2715V60.1572ZM299.082 60.3506C299.082 61.4053 299.325 62.252 299.812 62.8906C300.304 63.5293 300.96 63.8486 301.78 63.8486C302.606 63.8486 303.263 63.5264 303.749 62.8818C304.235 62.2314 304.479 61.3232 304.479 60.1572C304.479 59.1143 304.229 58.2705 303.731 57.626C303.239 56.9756 302.583 56.6504 301.763 56.6504C300.96 56.6504 300.312 56.9697 299.82 57.6084C299.328 58.2471 299.082 59.1611 299.082 60.3506ZM311.141 62.7939L313.496 55.4902H315.157L311.747 65H310.508L307.062 55.4902H308.724L311.141 62.7939ZM318.488 65H316.862V55.4902H318.488V65ZM316.73 52.9678C316.73 52.7041 316.81 52.4814 316.968 52.2998C317.132 52.1182 317.372 52.0273 317.688 52.0273C318.005 52.0273 318.245 52.1182 318.409 52.2998C318.573 52.4814 318.655 52.7041 318.655 52.9678C318.655 53.2314 318.573 53.4512 318.409 53.627C318.245 53.8027 318.005 53.8906 317.688 53.8906C317.372 53.8906 317.132 53.8027 316.968 53.627C316.81 53.4512 316.73 53.2314 316.73 52.9678Z" fill="#A4A4A4"/>
<path d="M389.594 60.9395C389.436 62.293 388.935 63.3389 388.091 64.0771C387.253 64.8096 386.137 65.1758 384.742 65.1758C383.23 65.1758 382.018 64.6338 381.104 63.5498C380.195 62.4658 379.741 61.0156 379.741 59.1992V57.9688C379.741 56.7793 379.952 55.7334 380.374 54.8311C380.802 53.9287 381.405 53.2373 382.185 52.7568C382.964 52.2705 383.866 52.0273 384.892 52.0273C386.251 52.0273 387.341 52.4082 388.161 53.1699C388.981 53.9258 389.459 54.9746 389.594 56.3164H387.897C387.751 55.2969 387.432 54.5586 386.939 54.1016C386.453 53.6445 385.771 53.416 384.892 53.416C383.813 53.416 382.967 53.8145 382.352 54.6113C381.742 55.4082 381.438 56.542 381.438 58.0127V59.252C381.438 60.6406 381.728 61.7451 382.308 62.5654C382.888 63.3857 383.699 63.7959 384.742 63.7959C385.68 63.7959 386.397 63.585 386.896 63.1631C387.399 62.7354 387.733 61.9941 387.897 60.9395H389.594ZM391.22 60.1572C391.22 59.2256 391.401 58.3877 391.765 57.6436C392.134 56.8994 392.644 56.3252 393.294 55.9209C393.95 55.5166 394.697 55.3145 395.535 55.3145C396.83 55.3145 397.876 55.7627 398.673 56.6592C399.476 57.5557 399.877 58.748 399.877 60.2363V60.3506C399.877 61.2764 399.698 62.1084 399.341 62.8467C398.989 63.5791 398.482 64.1504 397.82 64.5605C397.164 64.9707 396.408 65.1758 395.553 65.1758C394.264 65.1758 393.218 64.7275 392.415 63.8311C391.618 62.9346 391.22 61.748 391.22 60.2715V60.1572ZM392.854 60.3506C392.854 61.4053 393.098 62.252 393.584 62.8906C394.076 63.5293 394.732 63.8486 395.553 63.8486C396.379 63.8486 397.035 63.5264 397.521 62.8818C398.008 62.2314 398.251 61.3232 398.251 60.1572C398.251 59.1143 398.002 58.2705 397.504 57.626C397.012 56.9756 396.355 56.6504 395.535 56.6504C394.732 56.6504 394.085 56.9697 393.593 57.6084C393.101 58.2471 392.854 59.1611 392.854 60.3506ZM407.453 62.4775C407.453 62.0381 407.286 61.6982 406.952 61.458C406.624 61.2119 406.047 61.001 405.221 60.8252C404.4 60.6494 403.747 60.4385 403.261 60.1924C402.78 59.9463 402.423 59.6533 402.188 59.3135C401.96 58.9736 401.846 58.5693 401.846 58.1006C401.846 57.3213 402.174 56.6621 402.83 56.123C403.492 55.584 404.336 55.3145 405.361 55.3145C406.439 55.3145 407.312 55.5928 407.98 56.1494C408.654 56.7061 408.991 57.418 408.991 58.2852H407.356C407.356 57.8398 407.166 57.4561 406.785 57.1338C406.41 56.8115 405.936 56.6504 405.361 56.6504C404.77 56.6504 404.307 56.7793 403.973 57.0371C403.639 57.2949 403.472 57.6318 403.472 58.0479C403.472 58.4404 403.627 58.7363 403.938 58.9355C404.248 59.1348 404.808 59.3252 405.616 59.5068C406.431 59.6885 407.09 59.9053 407.594 60.1572C408.098 60.4092 408.47 60.7139 408.71 61.0713C408.956 61.4229 409.079 61.8535 409.079 62.3633C409.079 63.2129 408.739 63.8955 408.06 64.4111C407.38 64.9209 406.498 65.1758 405.414 65.1758C404.652 65.1758 403.979 65.041 403.393 64.7715C402.807 64.502 402.347 64.127 402.013 63.6465C401.685 63.1602 401.521 62.6357 401.521 62.0732H403.146C403.176 62.6182 403.393 63.0518 403.797 63.374C404.207 63.6904 404.746 63.8486 405.414 63.8486C406.029 63.8486 406.521 63.7256 406.891 63.4795C407.266 63.2275 407.453 62.8936 407.453 62.4775ZM413.403 53.1875V55.4902H415.179V56.7471H413.403V62.6445C413.403 63.0254 413.482 63.3125 413.641 63.5059C413.799 63.6934 414.068 63.7871 414.449 63.7871C414.637 63.7871 414.895 63.752 415.223 63.6816V65C414.795 65.1172 414.379 65.1758 413.975 65.1758C413.248 65.1758 412.7 64.9561 412.331 64.5166C411.962 64.0771 411.777 63.4531 411.777 62.6445V56.7471H410.046V55.4902H411.777V53.1875H413.403ZM429.602 60.3506C429.602 61.8037 429.268 62.9727 428.6 63.8574C427.932 64.7363 427.035 65.1758 425.91 65.1758C424.709 65.1758 423.78 64.751 423.124 63.9014L423.045 65H421.551V51.5H423.177V56.5361C423.833 55.7217 424.738 55.3145 425.893 55.3145C427.047 55.3145 427.952 55.751 428.608 56.624C429.271 57.4971 429.602 58.6924 429.602 60.21V60.3506ZM427.976 60.166C427.976 59.0586 427.762 58.2031 427.334 57.5996C426.906 56.9961 426.291 56.6943 425.488 56.6943C424.416 56.6943 423.646 57.1924 423.177 58.1885V62.3018C423.675 63.2979 424.451 63.7959 425.506 63.7959C426.285 63.7959 426.892 63.4941 427.325 62.8906C427.759 62.2871 427.976 61.3789 427.976 60.166ZM435.604 65.1758C434.315 65.1758 433.267 64.7539 432.458 63.9102C431.649 63.0605 431.245 61.9268 431.245 60.5088V60.21C431.245 59.2666 431.424 58.4258 431.781 57.6875C432.145 56.9434 432.648 56.3633 433.293 55.9473C433.943 55.5254 434.646 55.3145 435.402 55.3145C436.639 55.3145 437.6 55.7217 438.285 56.5361C438.971 57.3506 439.313 58.5166 439.313 60.0342V60.7109H432.871C432.895 61.6484 433.167 62.4072 433.688 62.9873C434.216 63.5615 434.884 63.8486 435.692 63.8486C436.267 63.8486 436.753 63.7314 437.151 63.4971C437.55 63.2627 437.898 62.9521 438.197 62.5654L439.19 63.3389C438.394 64.5635 437.198 65.1758 435.604 65.1758ZM435.402 56.6504C434.746 56.6504 434.195 56.8906 433.75 57.3711C433.305 57.8457 433.029 58.5137 432.924 59.375H437.688V59.252C437.641 58.4258 437.418 57.7871 437.02 57.3359C436.621 56.8789 436.082 56.6504 435.402 56.6504ZM442.741 55.4902L442.794 56.6855C443.521 55.7715 444.47 55.3145 445.642 55.3145C447.651 55.3145 448.665 56.4482 448.683 58.7158V65H447.057V58.707C447.051 58.0215 446.893 57.5146 446.582 57.1865C446.277 56.8584 445.8 56.6943 445.149 56.6943C444.622 56.6943 444.159 56.835 443.761 57.1162C443.362 57.3975 443.052 57.7666 442.829 58.2236V65H441.203V55.4902H442.741ZM455.081 65.1758C453.792 65.1758 452.743 64.7539 451.935 63.9102C451.126 63.0605 450.722 61.9268 450.722 60.5088V60.21C450.722 59.2666 450.9 58.4258 451.258 57.6875C451.621 56.9434 452.125 56.3633 452.77 55.9473C453.42 55.5254 454.123 55.3145 454.879 55.3145C456.115 55.3145 457.076 55.7217 457.762 56.5361C458.447 57.3506 458.79 58.5166 458.79 60.0342V60.7109H452.348C452.371 61.6484 452.644 62.4072 453.165 62.9873C453.692 63.5615 454.36 63.8486 455.169 63.8486C455.743 63.8486 456.229 63.7314 456.628 63.4971C457.026 63.2627 457.375 62.9521 457.674 62.5654L458.667 63.3389C457.87 64.5635 456.675 65.1758 455.081 65.1758ZM454.879 56.6504C454.223 56.6504 453.672 56.8906 453.227 57.3711C452.781 57.8457 452.506 58.5137 452.4 59.375H457.164V59.252C457.117 58.4258 456.895 57.7871 456.496 57.3359C456.098 56.8789 455.559 56.6504 454.879 56.6504ZM461.225 65V56.7471H459.722V55.4902H461.225V54.6816C461.225 53.6211 461.526 52.7949 462.13 52.2031C462.739 51.6113 463.598 51.3154 464.705 51.3154C465.361 51.3154 466.19 51.4941 467.192 51.8516L466.92 53.2227C466.188 52.9297 465.49 52.7832 464.828 52.7832C464.131 52.7832 463.627 52.9414 463.316 53.2578C463.012 53.5684 462.859 54.0371 462.859 54.6641V55.4902H464.802V56.7471H462.859V65H461.225ZM468.001 65H466.366V55.4902H468.001V65ZM472.853 53.1875V55.4902H474.628V56.7471H472.853V62.6445C472.853 63.0254 472.932 63.3125 473.09 63.5059C473.248 63.6934 473.518 63.7871 473.898 63.7871C474.086 63.7871 474.344 63.752 474.672 63.6816V65C474.244 65.1172 473.828 65.1758 473.424 65.1758C472.697 65.1758 472.149 64.9561 471.78 64.5166C471.411 64.0771 471.227 63.4531 471.227 62.6445V56.7471H469.495V55.4902H471.227V53.1875H472.853ZM403.568 86C403.475 85.8125 403.398 85.4785 403.34 84.998C402.584 85.7832 401.682 86.1758 400.633 86.1758C399.695 86.1758 398.925 85.9121 398.321 85.3848C397.724 84.8516 397.425 84.1777 397.425 83.3633C397.425 82.373 397.8 81.6055 398.55 81.0605C399.306 80.5098 400.366 80.2344 401.731 80.2344H403.313V79.4873C403.313 78.9189 403.144 78.4678 402.804 78.1338C402.464 77.7939 401.963 77.624 401.301 77.624C400.721 77.624 400.234 77.7705 399.842 78.0635C399.449 78.3564 399.253 78.7109 399.253 79.127H397.618C397.618 78.6523 397.785 78.1953 398.119 77.7559C398.459 77.3105 398.916 76.959 399.49 76.7012C400.07 76.4434 400.706 76.3145 401.397 76.3145C402.493 76.3145 403.352 76.5898 403.973 77.1406C404.594 77.6855 404.916 78.4385 404.939 79.3994V83.7764C404.939 84.6494 405.051 85.3438 405.273 85.8594V86H403.568ZM400.87 84.7607C401.38 84.7607 401.863 84.6289 402.32 84.3652C402.777 84.1016 403.108 83.7588 403.313 83.3369V81.3857H402.039C400.047 81.3857 399.051 81.9688 399.051 83.1348C399.051 83.6445 399.221 84.043 399.561 84.3301C399.9 84.6172 400.337 84.7607 400.87 84.7607ZM409.026 76.4902L409.079 77.6855C409.806 76.7715 410.755 76.3145 411.927 76.3145C413.937 76.3145 414.95 77.4482 414.968 79.7158V86H413.342V79.707C413.336 79.0215 413.178 78.5146 412.867 78.1865C412.562 77.8584 412.085 77.6943 411.435 77.6943C410.907 77.6943 410.444 77.835 410.046 78.1162C409.647 78.3975 409.337 78.7666 409.114 79.2236V86H407.488V76.4902H409.026ZM423.291 86C423.197 85.8125 423.121 85.4785 423.062 84.998C422.307 85.7832 421.404 86.1758 420.355 86.1758C419.418 86.1758 418.647 85.9121 418.044 85.3848C417.446 84.8516 417.147 84.1777 417.147 83.3633C417.147 82.373 417.522 81.6055 418.272 81.0605C419.028 80.5098 420.089 80.2344 421.454 80.2344H423.036V79.4873C423.036 78.9189 422.866 78.4678 422.526 78.1338C422.187 77.7939 421.686 77.624 421.023 77.624C420.443 77.624 419.957 77.7705 419.564 78.0635C419.172 78.3564 418.976 78.7109 418.976 79.127H417.341C417.341 78.6523 417.508 78.1953 417.842 77.7559C418.182 77.3105 418.639 76.959 419.213 76.7012C419.793 76.4434 420.429 76.3145 421.12 76.3145C422.216 76.3145 423.074 76.5898 423.695 77.1406C424.316 77.6855 424.639 78.4385 424.662 79.3994V83.7764C424.662 84.6494 424.773 85.3438 424.996 85.8594V86H423.291ZM420.593 84.7607C421.103 84.7607 421.586 84.6289 422.043 84.3652C422.5 84.1016 422.831 83.7588 423.036 83.3369V81.3857H421.762C419.77 81.3857 418.773 81.9688 418.773 83.1348C418.773 83.6445 418.943 84.043 419.283 84.3301C419.623 84.6172 420.06 84.7607 420.593 84.7607ZM428.978 86H427.352V72.5H428.978V86ZM433.354 86H431.729V76.4902H433.354V86ZM431.597 73.9678C431.597 73.7041 431.676 73.4814 431.834 73.2998C431.998 73.1182 432.238 73.0273 432.555 73.0273C432.871 73.0273 433.111 73.1182 433.275 73.2998C433.439 73.4814 433.521 73.7041 433.521 73.9678C433.521 74.2314 433.439 74.4512 433.275 74.627C433.111 74.8027 432.871 74.8906 432.555 74.8906C432.238 74.8906 431.998 74.8027 431.834 74.627C431.676 74.4512 431.597 74.2314 431.597 73.9678ZM437.494 84.6729H443.058V86H435.508V84.8047L440.755 77.835H435.587V76.4902H442.794V77.6416L437.494 84.6729ZM448.7 86.1758C447.411 86.1758 446.362 85.7539 445.554 84.9102C444.745 84.0605 444.341 82.9268 444.341 81.5088V81.21C444.341 80.2666 444.52 79.4258 444.877 78.6875C445.24 77.9434 445.744 77.3633 446.389 76.9473C447.039 76.5254 447.742 76.3145 448.498 76.3145C449.734 76.3145 450.695 76.7217 451.381 77.5361C452.066 78.3506 452.409 79.5166 452.409 81.0342V81.7109H445.967C445.99 82.6484 446.263 83.4072 446.784 83.9873C447.312 84.5615 447.979 84.8486 448.788 84.8486C449.362 84.8486 449.849 84.7314 450.247 84.4971C450.646 84.2627 450.994 83.9521 451.293 83.5654L452.286 84.3389C451.489 85.5635 450.294 86.1758 448.7 86.1758ZM448.498 77.6504C447.842 77.6504 447.291 77.8906 446.846 78.3711C446.4 78.8457 446.125 79.5137 446.02 80.375H450.783V80.252C450.736 79.4258 450.514 78.7871 450.115 78.3359C449.717 77.8789 449.178 77.6504 448.498 77.6504Z" fill="#A4A4A4"/>
<path d="M908.074 59.9902V65H906.387V52.2031H911.106C912.507 52.2031 913.603 52.5605 914.394 53.2754C915.19 53.9902 915.589 54.9365 915.589 56.1143C915.589 57.3564 915.199 58.3145 914.42 58.9883C913.646 59.6562 912.536 59.9902 911.089 59.9902H908.074ZM908.074 58.6104H911.106C912.009 58.6104 912.7 58.3994 913.181 57.9775C913.661 57.5498 913.901 56.9346 913.901 56.1318C913.901 55.3701 913.661 54.7607 913.181 54.3037C912.7 53.8467 912.041 53.6094 911.203 53.5918H908.074V58.6104ZM916.934 60.1572C916.934 59.2256 917.115 58.3877 917.479 57.6436C917.848 56.8994 918.357 56.3252 919.008 55.9209C919.664 55.5166 920.411 55.3145 921.249 55.3145C922.544 55.3145 923.59 55.7627 924.387 56.6592C925.189 57.5557 925.591 58.748 925.591 60.2363V60.3506C925.591 61.2764 925.412 62.1084 925.055 62.8467C924.703 63.5791 924.196 64.1504 923.534 64.5605C922.878 64.9707 922.122 65.1758 921.267 65.1758C919.978 65.1758 918.932 64.7275 918.129 63.8311C917.332 62.9346 916.934 61.748 916.934 60.2715V60.1572ZM918.568 60.3506C918.568 61.4053 918.812 62.252 919.298 62.8906C919.79 63.5293 920.446 63.8486 921.267 63.8486C922.093 63.8486 922.749 63.5264 923.235 62.8818C923.722 62.2314 923.965 61.3232 923.965 60.1572C923.965 59.1143 923.716 58.2705 923.218 57.626C922.726 56.9756 922.069 56.6504 921.249 56.6504C920.446 56.6504 919.799 56.9697 919.307 57.6084C918.814 58.2471 918.568 59.1611 918.568 60.3506ZM933.167 62.4775C933.167 62.0381 933 61.6982 932.666 61.458C932.338 61.2119 931.761 61.001 930.935 60.8252C930.114 60.6494 929.461 60.4385 928.975 60.1924C928.494 59.9463 928.137 59.6533 927.902 59.3135C927.674 58.9736 927.56 58.5693 927.56 58.1006C927.56 57.3213 927.888 56.6621 928.544 56.123C929.206 55.584 930.05 55.3145 931.075 55.3145C932.153 55.3145 933.026 55.5928 933.694 56.1494C934.368 56.7061 934.705 57.418 934.705 58.2852H933.07C933.07 57.8398 932.88 57.4561 932.499 57.1338C932.124 56.8115 931.649 56.6504 931.075 56.6504C930.483 56.6504 930.021 56.7793 929.687 57.0371C929.353 57.2949 929.186 57.6318 929.186 58.0479C929.186 58.4404 929.341 58.7363 929.651 58.9355C929.962 59.1348 930.521 59.3252 931.33 59.5068C932.145 59.6885 932.804 59.9053 933.308 60.1572C933.812 60.4092 934.184 60.7139 934.424 61.0713C934.67 61.4229 934.793 61.8535 934.793 62.3633C934.793 63.2129 934.453 63.8955 933.773 64.4111C933.094 64.9209 932.212 65.1758 931.128 65.1758C930.366 65.1758 929.692 65.041 929.106 64.7715C928.521 64.502 928.061 64.127 927.727 63.6465C927.398 63.1602 927.234 62.6357 927.234 62.0732H928.86C928.89 62.6182 929.106 63.0518 929.511 63.374C929.921 63.6904 930.46 63.8486 931.128 63.8486C931.743 63.8486 932.235 63.7256 932.604 63.4795C932.979 63.2275 933.167 62.8936 933.167 62.4775ZM938.678 65H937.052V51.5H938.678V65ZM940.857 60.1572C940.857 59.2256 941.039 58.3877 941.402 57.6436C941.771 56.8994 942.281 56.3252 942.932 55.9209C943.588 55.5166 944.335 55.3145 945.173 55.3145C946.468 55.3145 947.514 55.7627 948.311 56.6592C949.113 57.5557 949.515 58.748 949.515 60.2363V60.3506C949.515 61.2764 949.336 62.1084 948.979 62.8467C948.627 63.5791 948.12 64.1504 947.458 64.5605C946.802 64.9707 946.046 65.1758 945.19 65.1758C943.901 65.1758 942.855 64.7275 942.053 63.8311C941.256 62.9346 940.857 61.748 940.857 60.2715V60.1572ZM942.492 60.3506C942.492 61.4053 942.735 62.252 943.222 62.8906C943.714 63.5293 944.37 63.8486 945.19 63.8486C946.017 63.8486 946.673 63.5264 947.159 62.8818C947.646 62.2314 947.889 61.3232 947.889 60.1572C947.889 59.1143 947.64 58.2705 947.142 57.626C946.649 56.9756 945.993 56.6504 945.173 56.6504C944.37 56.6504 943.723 56.9697 943.23 57.6084C942.738 58.2471 942.492 59.1611 942.492 60.3506ZM954.551 62.7939L956.906 55.4902H958.567L955.157 65H953.918L950.473 55.4902H952.134L954.551 62.7939ZM961.67 55.4902L961.723 56.6855C962.449 55.7715 963.398 55.3145 964.57 55.3145C966.58 55.3145 967.594 56.4482 967.611 58.7158V65H965.985V58.707C965.979 58.0215 965.821 57.5146 965.511 57.1865C965.206 56.8584 964.729 56.6943 964.078 56.6943C963.551 56.6943 963.088 56.835 962.689 57.1162C962.291 57.3975 961.98 57.7666 961.758 58.2236V65H960.132V55.4902H961.67ZM969.633 60.1572C969.633 59.2256 969.814 58.3877 970.178 57.6436C970.547 56.8994 971.057 56.3252 971.707 55.9209C972.363 55.5166 973.11 55.3145 973.948 55.3145C975.243 55.3145 976.289 55.7627 977.086 56.6592C977.889 57.5557 978.29 58.748 978.29 60.2363V60.3506C978.29 61.2764 978.111 62.1084 977.754 62.8467C977.402 63.5791 976.896 64.1504 976.233 64.5605C975.577 64.9707 974.821 65.1758 973.966 65.1758C972.677 65.1758 971.631 64.7275 970.828 63.8311C970.031 62.9346 969.633 61.748 969.633 60.2715V60.1572ZM971.268 60.3506C971.268 61.4053 971.511 62.252 971.997 62.8906C972.489 63.5293 973.146 63.8486 973.966 63.8486C974.792 63.8486 975.448 63.5264 975.935 62.8818C976.421 62.2314 976.664 61.3232 976.664 60.1572C976.664 59.1143 976.415 58.2705 975.917 57.626C975.425 56.9756 974.769 56.6504 973.948 56.6504C973.146 56.6504 972.498 56.9697 972.006 57.6084C971.514 58.2471 971.268 59.1611 971.268 60.3506ZM899.021 83.4775C899.021 83.0381 898.854 82.6982 898.521 82.458C898.192 82.2119 897.615 82.001 896.789 81.8252C895.969 81.6494 895.315 81.4385 894.829 81.1924C894.349 80.9463 893.991 80.6533 893.757 80.3135C893.528 79.9736 893.414 79.5693 893.414 79.1006C893.414 78.3213 893.742 77.6621 894.398 77.123C895.061 76.584 895.904 76.3145 896.93 76.3145C898.008 76.3145 898.881 76.5928 899.549 77.1494C900.223 77.7061 900.56 78.418 900.56 79.2852H898.925C898.925 78.8398 898.734 78.4561 898.354 78.1338C897.979 77.8115 897.504 77.6504 896.93 77.6504C896.338 77.6504 895.875 77.7793 895.541 78.0371C895.207 78.2949 895.04 78.6318 895.04 79.0479C895.04 79.4404 895.195 79.7363 895.506 79.9355C895.816 80.1348 896.376 80.3252 897.185 80.5068C897.999 80.6885 898.658 80.9053 899.162 81.1572C899.666 81.4092 900.038 81.7139 900.278 82.0713C900.524 82.4229 900.647 82.8535 900.647 83.3633C900.647 84.2129 900.308 84.8955 899.628 85.4111C898.948 85.9209 898.066 86.1758 896.982 86.1758C896.221 86.1758 895.547 86.041 894.961 85.7715C894.375 85.502 893.915 85.127 893.581 84.6465C893.253 84.1602 893.089 83.6357 893.089 83.0732H894.715C894.744 83.6182 894.961 84.0518 895.365 84.374C895.775 84.6904 896.314 84.8486 896.982 84.8486C897.598 84.8486 898.09 84.7256 898.459 84.4795C898.834 84.2275 899.021 83.8936 899.021 83.4775ZM908.637 86C908.543 85.8125 908.467 85.4785 908.408 84.998C907.652 85.7832 906.75 86.1758 905.701 86.1758C904.764 86.1758 903.993 85.9121 903.39 85.3848C902.792 84.8516 902.493 84.1777 902.493 83.3633C902.493 82.373 902.868 81.6055 903.618 81.0605C904.374 80.5098 905.435 80.2344 906.8 80.2344H908.382V79.4873C908.382 78.9189 908.212 78.4678 907.872 78.1338C907.532 77.7939 907.031 77.624 906.369 77.624C905.789 77.624 905.303 77.7705 904.91 78.0635C904.518 78.3564 904.321 78.7109 904.321 79.127H902.687C902.687 78.6523 902.854 78.1953 903.188 77.7559C903.527 77.3105 903.984 76.959 904.559 76.7012C905.139 76.4434 905.774 76.3145 906.466 76.3145C907.562 76.3145 908.42 76.5898 909.041 77.1406C909.662 77.6855 909.984 78.4385 910.008 79.3994V83.7764C910.008 84.6494 910.119 85.3438 910.342 85.8594V86H908.637ZM905.938 84.7607C906.448 84.7607 906.932 84.6289 907.389 84.3652C907.846 84.1016 908.177 83.7588 908.382 83.3369V81.3857H907.107C905.115 81.3857 904.119 81.9688 904.119 83.1348C904.119 83.6445 904.289 84.043 904.629 84.3301C904.969 84.6172 905.405 84.7607 905.938 84.7607ZM915.554 83.7939L917.909 76.4902H919.57L916.16 86H914.921L911.476 76.4902H913.137L915.554 83.7939ZM922.813 76.4902V87.0986C922.813 88.9268 921.984 89.8408 920.326 89.8408C919.969 89.8408 919.638 89.7881 919.333 89.6826V88.3818C919.521 88.4287 919.767 88.4521 920.071 88.4521C920.435 88.4521 920.71 88.3525 920.897 88.1533C921.091 87.96 921.188 87.6201 921.188 87.1338V76.4902H922.813ZM921.021 73.9678C921.021 73.71 921.1 73.4902 921.258 73.3086C921.422 73.1211 921.659 73.0273 921.97 73.0273C922.286 73.0273 922.526 73.1182 922.69 73.2998C922.854 73.4814 922.937 73.7041 922.937 73.9678C922.937 74.2314 922.854 74.4512 922.69 74.627C922.526 74.8027 922.286 74.8906 921.97 74.8906C921.653 74.8906 921.416 74.8027 921.258 74.627C921.1 74.4512 921.021 74.2314 921.021 73.9678ZM929.388 86.1758C928.099 86.1758 927.05 85.7539 926.241 84.9102C925.433 84.0605 925.028 82.9268 925.028 81.5088V81.21C925.028 80.2666 925.207 79.4258 925.564 78.6875C925.928 77.9434 926.432 77.3633 927.076 76.9473C927.727 76.5254 928.43 76.3145 929.186 76.3145C930.422 76.3145 931.383 76.7217 932.068 77.5361C932.754 78.3506 933.097 79.5166 933.097 81.0342V81.7109H926.654C926.678 82.6484 926.95 83.4072 927.472 83.9873C927.999 84.5615 928.667 84.8486 929.476 84.8486C930.05 84.8486 930.536 84.7314 930.935 84.4971C931.333 84.2627 931.682 83.9521 931.98 83.5654L932.974 84.3389C932.177 85.5635 930.981 86.1758 929.388 86.1758ZM929.186 77.6504C928.529 77.6504 927.979 77.8906 927.533 78.3711C927.088 78.8457 926.812 79.5137 926.707 80.375H931.471V80.252C931.424 79.4258 931.201 78.7871 930.803 78.3359C930.404 77.8789 929.865 77.6504 929.186 77.6504ZM937.192 74.1875V76.4902H938.968V77.7471H937.192V83.6445C937.192 84.0254 937.271 84.3125 937.43 84.5059C937.588 84.6934 937.857 84.7871 938.238 84.7871C938.426 84.7871 938.684 84.752 939.012 84.6816V86C938.584 86.1172 938.168 86.1758 937.764 86.1758C937.037 86.1758 936.489 85.9561 936.12 85.5166C935.751 85.0771 935.566 84.4531 935.566 83.6445V77.7471H933.835V76.4902H935.566V74.1875H937.192ZM940.269 81.1572C940.269 80.2256 940.45 79.3877 940.813 78.6436C941.183 77.8994 941.692 77.3252 942.343 76.9209C942.999 76.5166 943.746 76.3145 944.584 76.3145C945.879 76.3145 946.925 76.7627 947.722 77.6592C948.524 78.5557 948.926 79.748 948.926 81.2363V81.3506C948.926 82.2764 948.747 83.1084 948.39 83.8467C948.038 84.5791 947.531 85.1504 946.869 85.5605C946.213 85.9707 945.457 86.1758 944.602 86.1758C943.312 86.1758 942.267 85.7275 941.464 84.8311C940.667 83.9346 940.269 82.748 940.269 81.2715V81.1572ZM941.903 81.3506C941.903 82.4053 942.146 83.252 942.633 83.8906C943.125 84.5293 943.781 84.8486 944.602 84.8486C945.428 84.8486 946.084 84.5264 946.57 83.8818C947.057 83.2314 947.3 82.3232 947.3 81.1572C947.3 80.1143 947.051 79.2705 946.553 78.626C946.061 77.9756 945.404 77.6504 944.584 77.6504C943.781 77.6504 943.134 77.9697 942.642 78.6084C942.149 79.2471 941.903 80.1611 941.903 81.3506ZM953.962 83.7939L956.317 76.4902H957.979L954.568 86H953.329L949.884 76.4902H951.545L953.962 83.7939ZM965.273 86C965.18 85.8125 965.104 85.4785 965.045 84.998C964.289 85.7832 963.387 86.1758 962.338 86.1758C961.4 86.1758 960.63 85.9121 960.026 85.3848C959.429 84.8516 959.13 84.1777 959.13 83.3633C959.13 82.373 959.505 81.6055 960.255 81.0605C961.011 80.5098 962.071 80.2344 963.437 80.2344H965.019V79.4873C965.019 78.9189 964.849 78.4678 964.509 78.1338C964.169 77.7939 963.668 77.624 963.006 77.624C962.426 77.624 961.939 77.7705 961.547 78.0635C961.154 78.3564 960.958 78.7109 960.958 79.127H959.323C959.323 78.6523 959.49 78.1953 959.824 77.7559C960.164 77.3105 960.621 76.959 961.195 76.7012C961.775 76.4434 962.411 76.3145 963.103 76.3145C964.198 76.3145 965.057 76.5898 965.678 77.1406C966.299 77.6855 966.621 78.4385 966.645 79.3994V83.7764C966.645 84.6494 966.756 85.3438 966.979 85.8594V86H965.273ZM962.575 84.7607C963.085 84.7607 963.568 84.6289 964.025 84.3652C964.482 84.1016 964.813 83.7588 965.019 83.3369V81.3857H963.744C961.752 81.3857 960.756 81.9688 960.756 83.1348C960.756 83.6445 960.926 84.043 961.266 84.3301C961.605 84.6172 962.042 84.7607 962.575 84.7607ZM970.731 76.4902L970.784 77.6855C971.511 76.7715 972.46 76.3145 973.632 76.3145C975.642 76.3145 976.655 77.4482 976.673 79.7158V86H975.047V79.707C975.041 79.0215 974.883 78.5146 974.572 78.1865C974.268 77.8584 973.79 77.6943 973.14 77.6943C972.612 77.6943 972.149 77.835 971.751 78.1162C971.353 78.3975 971.042 78.7666 970.819 79.2236V86H969.193V76.4902H970.731ZM980.804 76.4902V87.0986C980.804 88.9268 979.975 89.8408 978.316 89.8408C977.959 89.8408 977.628 89.7881 977.323 89.6826V88.3818C977.511 88.4287 977.757 88.4521 978.062 88.4521C978.425 88.4521 978.7 88.3525 978.888 88.1533C979.081 87.96 979.178 87.6201 979.178 87.1338V76.4902H980.804ZM979.011 73.9678C979.011 73.71 979.09 73.4902 979.248 73.3086C979.412 73.1211 979.649 73.0273 979.96 73.0273C980.276 73.0273 980.517 73.1182 980.681 73.2998C980.845 73.4814 980.927 73.7041 980.927 73.9678C980.927 74.2314 980.845 74.4512 980.681 74.627C980.517 74.8027 980.276 74.8906 979.96 74.8906C979.644 74.8906 979.406 74.8027 979.248 74.627C979.09 74.4512 979.011 74.2314 979.011 73.9678ZM987.378 86.1758C986.089 86.1758 985.04 85.7539 984.231 84.9102C983.423 84.0605 983.019 82.9268 983.019 81.5088V81.21C983.019 80.2666 983.197 79.4258 983.555 78.6875C983.918 77.9434 984.422 77.3633 985.066 76.9473C985.717 76.5254 986.42 76.3145 987.176 76.3145C988.412 76.3145 989.373 76.7217 990.059 77.5361C990.744 78.3506 991.087 79.5166 991.087 81.0342V81.7109H984.645C984.668 82.6484 984.94 83.4072 985.462 83.9873C985.989 84.5615 986.657 84.8486 987.466 84.8486C988.04 84.8486 988.526 84.7314 988.925 84.4971C989.323 84.2627 989.672 83.9521 989.971 83.5654L990.964 84.3389C990.167 85.5635 988.972 86.1758 987.378 86.1758ZM987.176 77.6504C986.52 77.6504 985.969 77.8906 985.523 78.3711C985.078 78.8457 984.803 79.5137 984.697 80.375H989.461V80.252C989.414 79.4258 989.191 78.7871 988.793 78.3359C988.395 77.8789 987.855 77.6504 987.176 77.6504Z" fill="#A4A4A4"/>
<path d="M736.588 65H734.373V52.2031H736.588V65ZM741.396 63.2949H746.458V65H738.741V63.6025L743.566 57.2129H738.829V55.4902H746.273V56.8438L741.396 63.2949ZM747.627 60.1572C747.627 59.2256 747.812 58.3877 748.181 57.6436C748.55 56.8936 749.068 56.3193 749.736 55.9209C750.404 55.5166 751.172 55.3145 752.039 55.3145C753.322 55.3145 754.362 55.7275 755.159 56.5537C755.962 57.3799 756.396 58.4756 756.46 59.8408L756.469 60.3418C756.469 61.2793 756.287 62.1172 755.924 62.8555C755.566 63.5938 755.051 64.165 754.377 64.5693C753.709 64.9736 752.936 65.1758 752.057 65.1758C750.715 65.1758 749.64 64.7305 748.831 63.8398C748.028 62.9434 747.627 61.751 747.627 60.2627V60.1572ZM749.763 60.3418C749.763 61.3203 749.965 62.0879 750.369 62.6445C750.773 63.1953 751.336 63.4707 752.057 63.4707C752.777 63.4707 753.337 63.1895 753.735 62.627C754.14 62.0645 754.342 61.2412 754.342 60.1572C754.342 59.1963 754.134 58.4346 753.718 57.8721C753.308 57.3096 752.748 57.0283 752.039 57.0283C751.342 57.0283 750.788 57.3066 750.378 57.8633C749.968 58.4141 749.763 59.2402 749.763 60.3418ZM766.62 60.3418C766.62 61.8184 766.289 62.9932 765.627 63.8662C764.971 64.7393 764.065 65.1758 762.911 65.1758C761.798 65.1758 760.931 64.7744 760.31 63.9717L760.204 65H758.271V51.5H760.406V56.4043C761.021 55.6777 761.851 55.3145 762.894 55.3145C764.054 55.3145 764.965 55.7451 765.627 56.6064C766.289 57.4678 766.62 58.6719 766.62 60.2188V60.3418ZM764.484 60.1572C764.484 59.126 764.303 58.3525 763.939 57.8369C763.576 57.3213 763.049 57.0635 762.357 57.0635C761.432 57.0635 760.781 57.4678 760.406 58.2764V62.1963C760.787 63.0225 761.443 63.4355 762.375 63.4355C763.043 63.4355 763.559 63.1865 763.922 62.6885C764.285 62.1904 764.473 61.4375 764.484 60.4297V60.1572ZM773.396 57.4414C773.115 57.3945 772.825 57.3711 772.526 57.3711C771.548 57.3711 770.889 57.7461 770.549 58.4961V65H768.413V55.4902H770.452L770.505 56.5537C771.021 55.7275 771.735 55.3145 772.649 55.3145C772.954 55.3145 773.206 55.3555 773.405 55.4375L773.396 57.4414ZM780.164 65C780.07 64.8184 779.988 64.5225 779.918 64.1123C779.238 64.8213 778.406 65.1758 777.422 65.1758C776.467 65.1758 775.688 64.9033 775.084 64.3584C774.48 63.8135 774.179 63.1396 774.179 62.3369C774.179 61.3232 774.554 60.5469 775.304 60.0078C776.06 59.4629 777.138 59.1904 778.538 59.1904H779.848V58.5664C779.848 58.0742 779.71 57.6816 779.435 57.3887C779.159 57.0898 778.74 56.9404 778.178 56.9404C777.691 56.9404 777.293 57.0635 776.982 57.3096C776.672 57.5498 776.517 57.8574 776.517 58.2324H774.381C774.381 57.7109 774.554 57.2246 774.899 56.7734C775.245 56.3164 775.714 55.959 776.306 55.7012C776.903 55.4434 777.568 55.3145 778.301 55.3145C779.414 55.3145 780.302 55.5957 780.964 56.1582C781.626 56.7148 781.966 57.5 781.983 58.5137V62.8027C781.983 63.6582 782.104 64.3408 782.344 64.8506V65H780.164ZM777.817 63.4619C778.239 63.4619 778.635 63.3594 779.004 63.1543C779.379 62.9492 779.66 62.6738 779.848 62.3281V60.5352H778.696C777.905 60.5352 777.311 60.6729 776.912 60.9482C776.514 61.2236 776.314 61.6133 776.314 62.1172C776.314 62.5273 776.449 62.8555 776.719 63.1016C776.994 63.3418 777.36 63.4619 777.817 63.4619ZM786.501 63.2949H791.563V65H783.847V63.6025L788.672 57.2129H783.935V55.4902H791.379V56.8438L786.501 63.2949ZM801.618 60.3418C801.618 61.8184 801.287 62.9932 800.625 63.8662C799.969 64.7393 799.063 65.1758 797.909 65.1758C796.796 65.1758 795.929 64.7744 795.308 63.9717L795.202 65H793.269V51.5H795.404V56.4043C796.02 55.6777 796.849 55.3145 797.892 55.3145C799.052 55.3145 799.963 55.7451 800.625 56.6064C801.287 57.4678 801.618 58.6719 801.618 60.2188V60.3418ZM799.482 60.1572C799.482 59.126 799.301 58.3525 798.938 57.8369C798.574 57.3213 798.047 57.0635 797.355 57.0635C796.43 57.0635 795.779 57.4678 795.404 58.2764V62.1963C795.785 63.0225 796.441 63.4355 797.373 63.4355C798.041 63.4355 798.557 63.1865 798.92 62.6885C799.283 62.1904 799.471 61.4375 799.482 60.4297V60.1572ZM809.098 65C809.004 64.8184 808.922 64.5225 808.852 64.1123C808.172 64.8213 807.34 65.1758 806.355 65.1758C805.4 65.1758 804.621 64.9033 804.018 64.3584C803.414 63.8135 803.112 63.1396 803.112 62.3369C803.112 61.3232 803.487 60.5469 804.237 60.0078C804.993 59.4629 806.071 59.1904 807.472 59.1904H808.781V58.5664C808.781 58.0742 808.644 57.6816 808.368 57.3887C808.093 57.0898 807.674 56.9404 807.111 56.9404C806.625 56.9404 806.227 57.0635 805.916 57.3096C805.605 57.5498 805.45 57.8574 805.45 58.2324H803.314C803.314 57.7109 803.487 57.2246 803.833 56.7734C804.179 56.3164 804.647 55.959 805.239 55.7012C805.837 55.4434 806.502 55.3145 807.234 55.3145C808.348 55.3145 809.235 55.5957 809.897 56.1582C810.56 56.7148 810.899 57.5 810.917 58.5137V62.8027C810.917 63.6582 811.037 64.3408 811.277 64.8506V65H809.098ZM806.751 63.4619C807.173 63.4619 807.568 63.3594 807.938 63.1543C808.312 62.9492 808.594 62.6738 808.781 62.3281V60.5352H807.63C806.839 60.5352 806.244 60.6729 805.846 60.9482C805.447 61.2236 805.248 61.6133 805.248 62.1172C805.248 62.5273 805.383 62.8555 805.652 63.1016C805.928 63.3418 806.294 63.4619 806.751 63.4619Z" fill="#A4A4A4"/>
<path d="M518.617 65H516.93V52.2031H518.617V65ZM522.994 55.4902L523.047 56.6855C523.773 55.7715 524.723 55.3145 525.895 55.3145C527.904 55.3145 528.918 56.4482 528.936 58.7158V65H527.31V58.707C527.304 58.0215 527.146 57.5146 526.835 57.1865C526.53 56.8584 526.053 56.6943 525.402 56.6943C524.875 56.6943 524.412 56.835 524.014 57.1162C523.615 57.3975 523.305 57.7666 523.082 58.2236V65H521.456V55.4902H522.994ZM534.525 62.7939L536.881 55.4902H538.542L535.132 65H533.893L530.447 55.4902H532.108L534.525 62.7939ZM543.93 65.1758C542.641 65.1758 541.592 64.7539 540.783 63.9102C539.975 63.0605 539.57 61.9268 539.57 60.5088V60.21C539.57 59.2666 539.749 58.4258 540.106 57.6875C540.47 56.9434 540.974 56.3633 541.618 55.9473C542.269 55.5254 542.972 55.3145 543.728 55.3145C544.964 55.3145 545.925 55.7217 546.61 56.5361C547.296 57.3506 547.639 58.5166 547.639 60.0342V60.7109H541.196C541.22 61.6484 541.492 62.4072 542.014 62.9873C542.541 63.5615 543.209 63.8486 544.018 63.8486C544.592 63.8486 545.078 63.7314 545.477 63.4971C545.875 63.2627 546.224 62.9521 546.522 62.5654L547.516 63.3389C546.719 64.5635 545.523 65.1758 543.93 65.1758ZM543.728 56.6504C543.071 56.6504 542.521 56.8906 542.075 57.3711C541.63 57.8457 541.354 58.5137 541.249 59.375H546.013V59.252C545.966 58.4258 545.743 57.7871 545.345 57.3359C544.946 56.8789 544.407 56.6504 543.728 56.6504ZM555.065 62.4775C555.065 62.0381 554.898 61.6982 554.564 61.458C554.236 61.2119 553.659 61.001 552.833 60.8252C552.013 60.6494 551.359 60.4385 550.873 60.1924C550.393 59.9463 550.035 59.6533 549.801 59.3135C549.572 58.9736 549.458 58.5693 549.458 58.1006C549.458 57.3213 549.786 56.6621 550.442 56.123C551.104 55.584 551.948 55.3145 552.974 55.3145C554.052 55.3145 554.925 55.5928 555.593 56.1494C556.267 56.7061 556.604 57.418 556.604 58.2852H554.969C554.969 57.8398 554.778 57.4561 554.397 57.1338C554.022 56.8115 553.548 56.6504 552.974 56.6504C552.382 56.6504 551.919 56.7793 551.585 57.0371C551.251 57.2949 551.084 57.6318 551.084 58.0479C551.084 58.4404 551.239 58.7363 551.55 58.9355C551.86 59.1348 552.42 59.3252 553.229 59.5068C554.043 59.6885 554.702 59.9053 555.206 60.1572C555.71 60.4092 556.082 60.7139 556.322 61.0713C556.568 61.4229 556.691 61.8535 556.691 62.3633C556.691 63.2129 556.352 63.8955 555.672 64.4111C554.992 64.9209 554.11 65.1758 553.026 65.1758C552.265 65.1758 551.591 65.041 551.005 64.7715C550.419 64.502 549.959 64.127 549.625 63.6465C549.297 63.1602 549.133 62.6357 549.133 62.0732H550.759C550.788 62.6182 551.005 63.0518 551.409 63.374C551.819 63.6904 552.358 63.8486 553.026 63.8486C553.642 63.8486 554.134 63.7256 554.503 63.4795C554.878 63.2275 555.065 62.8936 555.065 62.4775ZM561.016 53.1875V55.4902H562.791V56.7471H561.016V62.6445C561.016 63.0254 561.095 63.3125 561.253 63.5059C561.411 63.6934 561.681 63.7871 562.062 63.7871C562.249 63.7871 562.507 63.752 562.835 63.6816V65C562.407 65.1172 561.991 65.1758 561.587 65.1758C560.86 65.1758 560.312 64.9561 559.943 64.5166C559.574 64.0771 559.39 63.4531 559.39 62.6445V56.7471H557.658V55.4902H559.39V53.1875H561.016ZM566.465 65H564.839V55.4902H566.465V65ZM564.707 52.9678C564.707 52.7041 564.786 52.4814 564.944 52.2998C565.108 52.1182 565.349 52.0273 565.665 52.0273C565.981 52.0273 566.222 52.1182 566.386 52.2998C566.55 52.4814 566.632 52.7041 566.632 52.9678C566.632 53.2314 566.55 53.4512 566.386 53.627C566.222 53.8027 565.981 53.8906 565.665 53.8906C565.349 53.8906 565.108 53.8027 564.944 53.627C564.786 53.4512 564.707 53.2314 564.707 52.9678ZM572.89 63.8486C573.47 63.8486 573.977 63.6729 574.41 63.3213C574.844 62.9697 575.084 62.5303 575.131 62.0029H576.669C576.64 62.5479 576.452 63.0664 576.106 63.5586C575.761 64.0508 575.298 64.4434 574.718 64.7363C574.144 65.0293 573.534 65.1758 572.89 65.1758C571.595 65.1758 570.563 64.7451 569.796 63.8838C569.034 63.0166 568.653 61.833 568.653 60.333V60.0605C568.653 59.1348 568.823 58.3115 569.163 57.5908C569.503 56.8701 569.989 56.3105 570.622 55.9121C571.261 55.5137 572.014 55.3145 572.881 55.3145C573.947 55.3145 574.832 55.6338 575.535 56.2725C576.244 56.9111 576.622 57.7402 576.669 58.7598H575.131C575.084 58.1445 574.85 57.6406 574.428 57.248C574.012 56.8496 573.496 56.6504 572.881 56.6504C572.055 56.6504 571.413 56.9492 570.956 57.5469C570.505 58.1387 570.279 58.9971 570.279 60.1221V60.4297C570.279 61.5254 570.505 62.3691 570.956 62.9609C571.407 63.5527 572.052 63.8486 572.89 63.8486ZM580.264 65H578.638V55.4902H580.264V65ZM578.506 52.9678C578.506 52.7041 578.585 52.4814 578.743 52.2998C578.907 52.1182 579.147 52.0273 579.464 52.0273C579.78 52.0273 580.021 52.1182 580.185 52.2998C580.349 52.4814 580.431 52.7041 580.431 52.9678C580.431 53.2314 580.349 53.4512 580.185 53.627C580.021 53.8027 579.78 53.8906 579.464 53.8906C579.147 53.8906 578.907 53.8027 578.743 53.627C578.585 53.4512 578.506 53.2314 578.506 52.9678ZM584.553 55.4902V66.0986C584.553 67.9268 583.724 68.8408 582.065 68.8408C581.708 68.8408 581.377 68.7881 581.072 68.6826V67.3818C581.26 67.4287 581.506 67.4521 581.811 67.4521C582.174 67.4521 582.449 67.3525 582.637 67.1533C582.83 66.96 582.927 66.6201 582.927 66.1338V55.4902H584.553ZM582.76 52.9678C582.76 52.71 582.839 52.4902 582.997 52.3086C583.161 52.1211 583.398 52.0273 583.709 52.0273C584.025 52.0273 584.266 52.1182 584.43 52.2998C584.594 52.4814 584.676 52.7041 584.676 52.9678C584.676 53.2314 584.594 53.4512 584.43 53.627C584.266 53.8027 584.025 53.8906 583.709 53.8906C583.393 53.8906 583.155 53.8027 582.997 53.627C582.839 53.4512 582.76 53.2314 582.76 52.9678ZM592.718 62.4775C592.718 62.0381 592.551 61.6982 592.217 61.458C591.889 61.2119 591.312 61.001 590.485 60.8252C589.665 60.6494 589.012 60.4385 588.525 60.1924C588.045 59.9463 587.688 59.6533 587.453 59.3135C587.225 58.9736 587.11 58.5693 587.11 58.1006C587.11 57.3213 587.438 56.6621 588.095 56.123C588.757 55.584 589.601 55.3145 590.626 55.3145C591.704 55.3145 592.577 55.5928 593.245 56.1494C593.919 56.7061 594.256 57.418 594.256 58.2852H592.621C592.621 57.8398 592.431 57.4561 592.05 57.1338C591.675 56.8115 591.2 56.6504 590.626 56.6504C590.034 56.6504 589.571 56.7793 589.237 57.0371C588.903 57.2949 588.736 57.6318 588.736 58.0479C588.736 58.4404 588.892 58.7363 589.202 58.9355C589.513 59.1348 590.072 59.3252 590.881 59.5068C591.695 59.6885 592.354 59.9053 592.858 60.1572C593.362 60.4092 593.734 60.7139 593.975 61.0713C594.221 61.4229 594.344 61.8535 594.344 62.3633C594.344 63.2129 594.004 63.8955 593.324 64.4111C592.645 64.9209 591.763 65.1758 590.679 65.1758C589.917 65.1758 589.243 65.041 588.657 64.7715C588.071 64.502 587.611 64.127 587.277 63.6465C586.949 63.1602 586.785 62.6357 586.785 62.0732H588.411C588.44 62.6182 588.657 63.0518 589.062 63.374C589.472 63.6904 590.011 63.8486 590.679 63.8486C591.294 63.8486 591.786 63.7256 592.155 63.4795C592.53 63.2275 592.718 62.8936 592.718 62.4775ZM599.116 60.5967L598.097 61.6602V65H596.471V51.5H598.097V59.665L598.967 58.6191L601.929 55.4902H603.906L600.206 59.4629L604.337 65H602.43L599.116 60.5967ZM609.355 65.1758C608.066 65.1758 607.018 64.7539 606.209 63.9102C605.4 63.0605 604.996 61.9268 604.996 60.5088V60.21C604.996 59.2666 605.175 58.4258 605.532 57.6875C605.896 56.9434 606.399 56.3633 607.044 55.9473C607.694 55.5254 608.397 55.3145 609.153 55.3145C610.39 55.3145 611.351 55.7217 612.036 56.5361C612.722 57.3506 613.064 58.5166 613.064 60.0342V60.7109H606.622C606.646 61.6484 606.918 62.4072 607.439 62.9873C607.967 63.5615 608.635 63.8486 609.443 63.8486C610.018 63.8486 610.504 63.7314 610.902 63.4971C611.301 63.2627 611.649 62.9521 611.948 62.5654L612.941 63.3389C612.145 64.5635 610.949 65.1758 609.355 65.1758ZM609.153 56.6504C608.497 56.6504 607.946 56.8906 607.501 57.3711C607.056 57.8457 606.78 58.5137 606.675 59.375H611.438V59.252C611.392 58.4258 611.169 57.7871 610.771 57.3359C610.372 56.8789 609.833 56.6504 609.153 56.6504ZM624.956 62.4775C624.956 62.0381 624.789 61.6982 624.455 61.458C624.127 61.2119 623.55 61.001 622.724 60.8252C621.903 60.6494 621.25 60.4385 620.764 60.1924C620.283 59.9463 619.926 59.6533 619.691 59.3135C619.463 58.9736 619.349 58.5693 619.349 58.1006C619.349 57.3213 619.677 56.6621 620.333 56.123C620.995 55.584 621.839 55.3145 622.864 55.3145C623.942 55.3145 624.815 55.5928 625.483 56.1494C626.157 56.7061 626.494 57.418 626.494 58.2852H624.859C624.859 57.8398 624.669 57.4561 624.288 57.1338C623.913 56.8115 623.438 56.6504 622.864 56.6504C622.272 56.6504 621.81 56.7793 621.476 57.0371C621.142 57.2949 620.975 57.6318 620.975 58.0479C620.975 58.4404 621.13 58.7363 621.44 58.9355C621.751 59.1348 622.311 59.3252 623.119 59.5068C623.934 59.6885 624.593 59.9053 625.097 60.1572C625.601 60.4092 625.973 60.7139 626.213 61.0713C626.459 61.4229 626.582 61.8535 626.582 62.3633C626.582 63.2129 626.242 63.8955 625.562 64.4111C624.883 64.9209 624.001 65.1758 622.917 65.1758C622.155 65.1758 621.481 65.041 620.896 64.7715C620.31 64.502 619.85 64.127 619.516 63.6465C619.188 63.1602 619.023 62.6357 619.023 62.0732H620.649C620.679 62.6182 620.896 63.0518 621.3 63.374C621.71 63.6904 622.249 63.8486 622.917 63.8486C623.532 63.8486 624.024 63.7256 624.394 63.4795C624.769 63.2275 624.956 62.8936 624.956 62.4775ZM630.906 53.1875V55.4902H632.682V56.7471H630.906V62.6445C630.906 63.0254 630.985 63.3125 631.144 63.5059C631.302 63.6934 631.571 63.7871 631.952 63.7871C632.14 63.7871 632.397 63.752 632.726 63.6816V65C632.298 65.1172 631.882 65.1758 631.478 65.1758C630.751 65.1758 630.203 64.9561 629.834 64.5166C629.465 64.0771 629.28 63.4531 629.28 62.6445V56.7471H627.549V55.4902H629.28V53.1875H630.906ZM640.46 64.0596C639.827 64.8037 638.898 65.1758 637.674 65.1758C636.66 65.1758 635.887 64.8828 635.354 64.2969C634.826 63.7051 634.56 62.832 634.554 61.6777V55.4902H636.18V61.6338C636.18 63.0752 636.766 63.7959 637.938 63.7959C639.18 63.7959 640.006 63.333 640.416 62.4072V55.4902H642.042V65H640.495L640.46 64.0596ZM644.125 60.166C644.125 58.707 644.471 57.5352 645.162 56.6504C645.854 55.7598 646.759 55.3145 647.878 55.3145C648.991 55.3145 649.873 55.6953 650.523 56.457V51.5H652.149V65H650.655L650.576 63.9805C649.926 64.7773 649.021 65.1758 647.86 65.1758C646.759 65.1758 645.859 64.7246 645.162 63.8223C644.471 62.9199 644.125 61.7422 644.125 60.2891V60.166ZM645.751 60.3506C645.751 61.4287 645.974 62.2725 646.419 62.8818C646.864 63.4912 647.479 63.7959 648.265 63.7959C649.296 63.7959 650.049 63.333 650.523 62.4072V58.0391C650.037 57.1426 649.29 56.6943 648.282 56.6943C647.485 56.6943 646.864 57.002 646.419 57.6172C645.974 58.2324 645.751 59.1436 645.751 60.3506ZM656.447 65H654.821V55.4902H656.447V65ZM654.689 52.9678C654.689 52.7041 654.769 52.4814 654.927 52.2998C655.091 52.1182 655.331 52.0273 655.647 52.0273C655.964 52.0273 656.204 52.1182 656.368 52.2998C656.532 52.4814 656.614 52.7041 656.614 52.9678C656.614 53.2314 656.532 53.4512 656.368 53.627C656.204 53.8027 655.964 53.8906 655.647 53.8906C655.331 53.8906 655.091 53.8027 654.927 53.627C654.769 53.4512 654.689 53.2314 654.689 52.9678ZM660.736 55.4902V66.0986C660.736 67.9268 659.907 68.8408 658.249 68.8408C657.892 68.8408 657.561 68.7881 657.256 68.6826V67.3818C657.443 67.4287 657.689 67.4521 657.994 67.4521C658.357 67.4521 658.633 67.3525 658.82 67.1533C659.014 66.96 659.11 66.6201 659.11 66.1338V55.4902H660.736ZM658.943 52.9678C658.943 52.71 659.022 52.4902 659.181 52.3086C659.345 52.1211 659.582 52.0273 659.893 52.0273C660.209 52.0273 660.449 52.1182 660.613 52.2998C660.777 52.4814 660.859 52.7041 660.859 52.9678C660.859 53.2314 660.777 53.4512 660.613 53.627C660.449 53.8027 660.209 53.8906 659.893 53.8906C659.576 53.8906 659.339 53.8027 659.181 53.627C659.022 53.4512 658.943 53.2314 658.943 52.9678ZM667.311 65.1758C666.021 65.1758 664.973 64.7539 664.164 63.9102C663.355 63.0605 662.951 61.9268 662.951 60.5088V60.21C662.951 59.2666 663.13 58.4258 663.487 57.6875C663.851 56.9434 664.354 56.3633 664.999 55.9473C665.649 55.5254 666.353 55.3145 667.108 55.3145C668.345 55.3145 669.306 55.7217 669.991 56.5361C670.677 57.3506 671.02 58.5166 671.02 60.0342V60.7109H664.577C664.601 61.6484 664.873 62.4072 665.395 62.9873C665.922 63.5615 666.59 63.8486 667.398 63.8486C667.973 63.8486 668.459 63.7314 668.857 63.4971C669.256 63.2627 669.604 62.9521 669.903 62.5654L670.896 63.3389C670.1 64.5635 668.904 65.1758 667.311 65.1758ZM667.108 56.6504C666.452 56.6504 665.901 56.8906 665.456 57.3711C665.011 57.8457 664.735 58.5137 664.63 59.375H669.394V59.252C669.347 58.4258 669.124 57.7871 668.726 57.3359C668.327 56.8789 667.788 56.6504 667.108 56.6504Z" fill="#A4A4A4"/>
</svg>
